# https://github.com/mikedh/trimesh
mtllib Staff_Quaternius.mtl

o Cylinder
usemtl Wood.001
v 0.00000000 -0.99999998 0.02668284
v -0.02435200 -1.02801891 0.00186083
v 0.00270400 -1.02801891 0.01306783
v -0.04242600 -0.99999998 0.00910984
v 0.02976000 -1.02801890 -0.05225116
v 0.06000000 -0.99999997 -0.03331716
v 0.04096700 -1.02801891 -0.02519517
v 0.04242600 -0.99999997 -0.07574316
v -0.06000000 -0.99999997 -0.03331716
v -0.04242600 -0.99999997 -0.07574316
v -0.02435200 -1.02801890 -0.05225116
v -0.03555900 -1.02801891 -0.02519517
v 0.02976000 -1.02801891 0.00186083
v 0.00000000 -0.99999998 0.02668284
v 0.00270400 -1.02801891 0.01306783
v 0.04242600 -0.99999998 0.00910984
v -0.04242600 -0.99999998 0.00910984
v -0.06000000 -0.99999997 -0.03331716
v -0.03555900 -1.02801891 -0.02519517
v -0.02435200 -1.02801891 0.00186083
v 0.04096700 -1.02801891 -0.02519517
v 0.04242600 -0.99999998 0.00910984
v 0.02976000 -1.02801891 0.00186083
v 0.06000000 -0.99999997 -0.03331716
v 0.04242600 -0.99999997 -0.07574316
v 0.00270400 -1.02801890 -0.06345817
v 0.00000000 -0.99999996 -0.09331717
v 0.02976000 -1.02801890 -0.05225116
v -0.02435200 -1.02801890 -0.05225116
v -0.02435200 -1.02801891 0.00186083
v -0.03555900 -1.02801891 -0.02519517
v 0.02976000 -1.02801890 -0.05225116
v 0.02976000 -1.02801891 0.00186083
v 0.00270400 -1.02801891 0.01306783
v 0.00270400 -1.02801890 -0.06345817
v 0.04096700 -1.02801891 -0.02519517
v 0.07185300 0.99999998 0.00000016
v 0.05080800 1.05246100 0.01752917
v 0.05080800 0.99999997 0.05080816
v 0.07185300 1.04249204 -0.03124083
v -0.05080800 1.05246100 0.01752917
v -0.07185300 1.04249204 -0.03124083
v -0.07185300 0.99999998 0.00000016
v -0.05080800 0.99999997 0.05080816
v 0.05080800 1.05246100 0.01752917
v 0.00000000 1.05659104 0.03773017
v 0.00000000 0.99999997 0.07185316
v 0.05080800 0.99999997 0.05080816
v -0.05080800 0.99999999 -0.05080784
v -0.07185300 0.99999998 0.00000016
v -0.07185300 1.04249204 -0.03124083
v -0.05080800 1.03252299 -0.08001083
v 0.05080800 0.99999999 -0.05080784
v 0.07185300 1.04249204 -0.03124083
v 0.07185300 0.99999998 0.00000016
v 0.05080800 1.03252299 -0.08001083
v 0.00000000 0.99999997 0.07185316
v -0.05080800 1.05246100 0.01752917
v -0.05080800 0.99999997 0.05080816
v 0.00000000 1.05659104 0.03773017
v 0.00000000 1.02839397 -0.10021183
v -0.05080800 0.99999999 -0.05080784
v -0.05080800 1.03252299 -0.08001083
v 0.00000000 0.99999999 -0.07185283
v 0.05080800 0.99999999 -0.05080784
v 0.00000000 1.02839397 -0.10021183
v 0.05080800 1.03252299 -0.08001083
v 0.00000000 0.99999999 -0.07185283
v 0.00000000 1.22685094 0.21898520
v 0.01941900 1.23340999 0.04812120
v 0.00000000 1.24116800 0.05024720
v 0.04063700 1.21619698 0.23201719
v -0.04063700 1.21619698 0.23201719
v -0.02746300 1.21468100 0.04298920
v -0.05747000 1.19047589 0.26347820
v -0.01941900 1.23340999 0.04812120
v 0.00000000 1.18819400 0.03573019
v -0.04063700 1.16475490 0.29493920
v -0.01941900 1.19595201 0.03785620
v 0.00000000 1.15410094 0.30797017
v 0.04063700 1.16475490 0.29493920
v 0.00000000 1.18819400 0.03573019
v 0.01941900 1.19595201 0.03785620
v 0.00000000 1.15410094 0.30797017
v 0.04063700 1.21619698 0.23201719
v 0.02746300 1.21468100 0.04298920
v 0.01941900 1.23340999 0.04812120
v 0.05747000 1.19047589 0.26347820
v -0.01941900 1.23340999 0.04812120
v 0.00000000 1.22685094 0.21898520
v 0.00000000 1.24116800 0.05024720
v -0.04063700 1.21619698 0.23201719
v -0.05747000 1.19047589 0.26347820
v -0.01941900 1.19595201 0.03785620
v -0.04063700 1.16475490 0.29493920
v -0.02746300 1.21468100 0.04298920
v 0.01941900 1.19595201 0.03785620
v 0.00000000 1.24116800 0.05024720
v 0.01941900 1.23340999 0.04812120
v 0.02746300 1.21468100 0.04298920
v 0.00000000 1.18819400 0.03573019
v -0.01941900 1.23340999 0.04812120
v -0.01941900 1.19595201 0.03785620
v -0.02746300 1.21468100 0.04298920
v 0.06970100 1.49625089 0.25594922
v 0.04063700 1.16475490 0.29493920
v 0.05747000 1.19047589 0.26347820
v 0.04928600 1.53283286 0.28897626
v 0.04063700 1.21619698 0.23201719
v 0.00000000 1.44451695 0.20924025
v 0.04928600 1.45966891 0.22292124
v 0.00000000 1.22685094 0.21898520
v -0.05747000 1.19047589 0.26347820
v -0.04928600 1.45966891 0.22292124
v -0.04063700 1.21619698 0.23201719
v -0.06970100 1.49625089 0.25594922
v 0.00000000 1.15410094 0.30797017
v -0.04928600 1.53283286 0.28897626
v -0.04063700 1.16475490 0.29493920
v 0.00000000 1.54798594 0.30265725
v 0.04928600 1.53283286 0.28897626
v 0.00000000 1.15410094 0.30797017
v 0.04063700 1.16475490 0.29493920
v 0.00000000 1.54798594 0.30265725
v 0.04928600 1.45966891 0.22292124
v 0.05747000 1.19047589 0.26347820
v 0.04063700 1.21619698 0.23201719
v 0.06970100 1.49625089 0.25594922
v 0.00000000 1.44451695 0.20924025
v -0.04063700 1.21619698 0.23201719
v -0.04928600 1.45966891 0.22292124
v 0.00000000 1.22685094 0.21898520
v 0.05747000 1.19047589 0.26347820
v 0.01941900 1.19595201 0.03785620
v 0.02746300 1.21468100 0.04298920
v 0.04063700 1.16475490 0.29493920
v 0.04928600 1.54287798 -0.06970774
v 0.06970100 1.49625089 0.25594922
v 0.04928600 1.45966891 0.22292124
v 0.06970100 1.58936401 -0.08608274
v 0.00000000 1.44451695 0.20924025
v -0.04928600 1.54287798 -0.06970774
v 0.00000000 1.52362297 -0.06292475
v -0.04928600 1.45966891 0.22292124
v -0.06970100 1.58936401 -0.08608274
v -0.04928600 1.53283286 0.28897626
v -0.04928600 1.63584987 -0.10245773
v -0.06970100 1.49625089 0.25594922
v 0.06970100 1.58936401 -0.08608274
v 0.04928600 1.53283286 0.28897626
v 0.06970100 1.49625089 0.25594922
v 0.04928600 1.63584987 -0.10245773
v 0.04928600 1.54287798 -0.06970774
v 0.00000000 1.44451695 0.20924025
v 0.00000000 1.52362297 -0.06292475
v 0.04928600 1.45966891 0.22292124
v -0.04928600 1.54287798 -0.06970774
v -0.06970100 1.49625089 0.25594922
v -0.06970100 1.58936401 -0.08608274
v -0.04928600 1.45966891 0.22292124
v -0.04928600 1.53283286 0.28897626
v 0.00000000 1.65510496 -0.10924073
v -0.04928600 1.63584987 -0.10245773
v 0.00000000 1.54798594 0.30265725
v -0.04063700 1.16475490 0.29493920
v -0.06970100 1.49625089 0.25594922
v -0.05747000 1.19047589 0.26347820
v -0.04928600 1.53283286 0.28897626
v 0.00000000 1.65510496 -0.10924073
v 0.00000000 1.33582406 -0.34052778
v -0.04928600 1.63584987 -0.10245773
v -0.05080700 1.33014597 -0.32026278
v 0.04928600 1.63584987 -0.10245773
v 0.00000000 1.33582406 -0.34052778
v 0.00000000 1.65510496 -0.10924073
v 0.05080800 1.33014597 -0.32026278
v 0.04928600 1.54287798 -0.06970774
v 0.07185300 1.31643698 -0.27133980
v 0.06970100 1.58936401 -0.08608274
v 0.05080800 1.30272902 -0.22241678
v 0.00000000 1.52362297 -0.06292475
v -0.05080700 1.30272902 -0.22241678
v 0.00000000 1.29705000 -0.20215178
v -0.04928600 1.54287798 -0.06970774
v -0.04928600 1.63584987 -0.10245773
v -0.05080700 1.33014597 -0.32026278
v -0.06970100 1.58936401 -0.08608274
v -0.07185300 1.31643698 -0.27133980
v 0.06970100 1.58936401 -0.08608274
v 0.05080800 1.33014597 -0.32026278
v 0.04928600 1.63584987 -0.10245773
v 0.07185300 1.31643698 -0.27133980
v 0.05080800 1.30272902 -0.22241678
v 0.00000000 1.52362297 -0.06292475
v 0.00000000 1.29705000 -0.20215178
v 0.04928600 1.54287798 -0.06970774
v 0.00000000 1.65510496 -0.10924073
v 0.04928600 1.53283286 0.28897626
v 0.04928600 1.63584987 -0.10245773
v 0.00000000 1.54798594 0.30265725
v 0.07185300 1.31643698 -0.27133980
v 0.05080700 1.04922106 -0.17495582
v 0.05080800 1.33014597 -0.32026278
v 0.07185300 1.06915899 -0.12822383
v 0.05080800 1.30272902 -0.22241678
v 0.00000000 1.09735598 -0.06213482
v 0.05080700 1.08909795 -0.08149182
v 0.00000000 1.29705000 -0.20215178
v -0.07185300 1.06915899 -0.12822383
v -0.05080800 1.08909795 -0.08149182
v -0.05080700 1.30272902 -0.22241678
v -0.07185300 1.31643698 -0.27133980
v 0.00000000 1.33582406 -0.34052778
v -0.05080800 1.04922106 -0.17495582
v -0.05080700 1.33014597 -0.32026278
v 0.00000000 1.04096200 -0.19431284
v 0.05080700 1.04922106 -0.17495582
v 0.00000000 1.33582406 -0.34052778
v 0.05080800 1.33014597 -0.32026278
v 0.00000000 1.04096200 -0.19431284
v 0.05080800 1.30272902 -0.22241678
v 0.07185300 1.06915899 -0.12822383
v 0.07185300 1.31643698 -0.27133980
v 0.05080700 1.08909795 -0.08149182
v 0.00000000 1.09735598 -0.06213482
v -0.05080700 1.30272902 -0.22241678
v -0.05080800 1.08909795 -0.08149182
v 0.00000000 1.29705000 -0.20215178
v -0.06970100 1.58936401 -0.08608274
v -0.07185300 1.31643698 -0.27133980
v -0.04928600 1.54287798 -0.06970774
v -0.05080700 1.30272902 -0.22241678
v 0.05080700 1.04922106 -0.17495582
v 0.00000000 1.02839397 -0.10021183
v 0.00000000 1.04096200 -0.19431284
v 0.05080800 1.03252299 -0.08001083
v 0.00000000 1.04096200 -0.19431284
v 0.00000000 1.02839397 -0.10021183
v -0.05080800 1.04922106 -0.17495582
v -0.05080800 1.03252299 -0.08001083
v -0.05080800 1.08909795 -0.08149182
v -0.05080800 1.05246100 0.01752917
v 0.00000000 1.09735598 -0.06213482
v 0.00000000 1.05659104 0.03773017
v 0.05080800 1.03252299 -0.08001083
v 0.05080700 1.04922106 -0.17495582
v 0.07185300 1.06915899 -0.12822383
v 0.07185300 1.04249204 -0.03124083
v -0.05080800 1.04922106 -0.17495582
v -0.05080800 1.03252299 -0.08001083
v -0.07185300 1.06915899 -0.12822383
v -0.07185300 1.04249204 -0.03124083
v 0.00000000 1.09735598 -0.06213482
v 0.05080800 1.05246100 0.01752917
v 0.05080700 1.08909795 -0.08149182
v 0.00000000 1.05659104 0.03773017
v -0.07185300 1.06915899 -0.12822383
v -0.07185300 1.04249204 -0.03124083
v -0.05080800 1.08909795 -0.08149182
v -0.05080800 1.05246100 0.01752917
v -0.07185300 1.31643698 -0.27133980
v -0.05080800 1.04922106 -0.17495582
v -0.07185300 1.06915899 -0.12822383
v -0.05080700 1.33014597 -0.32026278
v 0.00000000 0.52263896 -0.05240691
v 0.03870900 -0.02424499 -0.05421100
v 0.00000000 -0.02424499 -0.07024500
v 0.04242600 0.52263896 -0.03483291
v 0.04242600 0.52263896 -0.03483291
v 0.05474300 -0.02424500 -0.01550200
v 0.03870900 -0.02424499 -0.05421100
v 0.06000000 0.52263895 0.00759308
v 0.03870900 -0.02424500 0.02320699
v 0.06000000 0.52263895 0.00759308
v 0.04242600 0.52263894 0.05002009
v 0.03870900 -0.02424500 0.02320699
v 0.00000000 0.52263894 0.06759309
v 0.00000000 -0.02424500 0.03924100
v 0.04242600 0.52263894 0.05002009
v -0.03870900 -0.02424500 0.02320699
v 0.00000000 0.52263894 0.06759309
v -0.04242600 0.52263894 0.05002009
v 0.00000000 -0.02424500 0.03924100
v -0.03870900 -0.02424500 0.02320699
v -0.06000000 0.52263895 0.00759308
v -0.05474300 -0.02424500 -0.01550200
v -0.04242600 0.52263894 0.05002009
v -0.03870900 -0.02424499 -0.05421100
v -0.04242600 0.52263896 -0.03483291
v 0.00000000 0.52263896 -0.05240691
v 0.00000000 -0.02424499 -0.07024500
v -0.05474300 -0.02424500 -0.01550200
v -0.04242600 0.52263896 -0.03483291
v -0.03870900 -0.02424499 -0.05421100
v -0.06000000 0.52263895 0.00759308
v 0.00000000 -0.45492397 -0.04518507
v 0.00000000 -0.02424499 -0.07024500
v 0.03870900 -0.02424499 -0.05421100
v 0.04242600 -0.45492397 -0.02761107
v 0.05474300 -0.02424500 -0.01550200
v 0.04242600 -0.45492397 -0.02761107
v 0.03870900 -0.02424499 -0.05421100
v 0.06000000 -0.45492398 0.01481493
v 0.03870900 -0.02424500 0.02320699
v 0.06000000 -0.45492398 0.01481493
v 0.05474300 -0.02424500 -0.01550200
v 0.04242600 -0.45492399 0.05724192
v 0.00000000 -0.45492399 0.07481492
v 0.03870900 -0.02424500 0.02320699
v 0.00000000 -0.02424500 0.03924100
v 0.04242600 -0.45492399 0.05724192
v 0.00000000 -0.45492399 0.07481492
v -0.03870900 -0.02424500 0.02320699
v -0.04242600 -0.45492399 0.05724192
v 0.00000000 -0.02424500 0.03924100
v -0.06000000 -0.45492398 0.01481493
v -0.03870900 -0.02424500 0.02320699
v -0.05474300 -0.02424500 -0.01550200
v -0.04242600 -0.45492399 0.05724192
v -0.03870900 -0.02424499 -0.05421100
v 0.00000000 -0.45492397 -0.04518507
v -0.04242600 -0.45492397 -0.02761107
v 0.00000000 -0.02424499 -0.07024500
v -0.04242600 -0.45492397 -0.02761107
v -0.05474300 -0.02424500 -0.01550200
v -0.03870900 -0.02424499 -0.05421100
v -0.06000000 -0.45492398 0.01481493
v 0.00000000 -0.81040895 -0.06000013
v 0.00000000 -0.45492397 -0.04518507
v 0.04242600 -0.45492397 -0.02761107
v 0.04242600 -0.81040896 -0.04242613
v 0.04242600 -0.45492397 -0.02761107
v 0.06000000 -0.81040896 -0.00000013
v 0.04242600 -0.81040896 -0.04242613
v 0.06000000 -0.45492398 0.01481493
v 0.06000000 -0.45492398 0.01481493
v 0.04242600 -0.81040897 0.04242587
v 0.06000000 -0.81040896 -0.00000013
v 0.04242600 -0.45492399 0.05724192
v 0.04242600 -0.81040897 0.04242587
v 0.00000000 -0.45492399 0.07481492
v 0.00000000 -0.81040897 0.05999986
v 0.04242600 -0.45492399 0.05724192
v 0.00000000 -0.81040897 0.05999986
v -0.04242600 -0.45492399 0.05724192
v -0.04242600 -0.81040897 0.04242587
v 0.00000000 -0.45492399 0.07481492
v -0.04242600 -0.81040897 0.04242587
v -0.06000000 -0.45492398 0.01481493
v -0.06000000 -0.81040896 -0.00000013
v -0.04242600 -0.45492399 0.05724192
v -0.04242600 -0.81040896 -0.04242613
v -0.04242600 -0.45492397 -0.02761107
v 0.00000000 -0.45492397 -0.04518507
v 0.00000000 -0.81040895 -0.06000013
v -0.06000000 -0.81040896 -0.00000013
v -0.04242600 -0.45492397 -0.02761107
v -0.04242600 -0.81040896 -0.04242613
v -0.06000000 -0.45492398 0.01481493
v 0.00000000 -0.99999996 -0.09331717
v 0.00000000 -0.81040895 -0.06000013
v 0.04242600 -0.81040896 -0.04242613
v 0.04242600 -0.99999997 -0.07574316
v 0.04242600 -0.81040896 -0.04242613
v 0.06000000 -0.99999997 -0.03331716
v 0.04242600 -0.99999997 -0.07574316
v 0.06000000 -0.81040896 -0.00000013
v 0.06000000 -0.81040896 -0.00000013
v 0.04242600 -0.99999998 0.00910984
v 0.06000000 -0.99999997 -0.03331716
v 0.04242600 -0.81040897 0.04242587
v 0.04242600 -0.99999998 0.00910984
v 0.00000000 -0.81040897 0.05999986
v 0.00000000 -0.99999998 0.02668284
v 0.04242600 -0.81040897 0.04242587
v 0.00000000 -0.99999998 0.02668284
v -0.04242600 -0.81040897 0.04242587
v -0.04242600 -0.99999998 0.00910984
v 0.00000000 -0.81040897 0.05999986
v -0.04242600 -0.99999998 0.00910984
v -0.06000000 -0.81040896 -0.00000013
v -0.06000000 -0.99999997 -0.03331716
v -0.04242600 -0.81040897 0.04242587
v -0.04242600 -0.99999997 -0.07574316
v -0.04242600 -0.81040896 -0.04242613
v 0.00000000 -0.81040895 -0.06000013
v 0.00000000 -0.99999996 -0.09331717
v -0.06000000 -0.99999997 -0.03331716
v -0.04242600 -0.81040896 -0.04242613
v -0.04242600 -0.99999997 -0.07574316
v -0.06000000 -0.81040896 -0.00000013
v 0.00270400 -1.02801890 -0.06345817
v -0.04242600 -0.99999997 -0.07574316
v 0.00000000 -0.99999996 -0.09331717
v -0.02435200 -1.02801890 -0.05225116
v -0.04242600 0.52263896 -0.03483291
v -0.07185300 0.99999998 0.00000016
v -0.05080800 0.99999999 -0.05080784
v -0.06000000 0.52263895 0.00759308
v -0.04242600 0.52263896 -0.03483291
v -0.05080800 0.99999999 -0.05080784
v 0.00000000 0.99999999 -0.07185283
v 0.00000000 0.52263896 -0.05240691
v 0.07185300 1.04249204 -0.03124083
v 0.05080700 1.08909795 -0.08149182
v 0.05080800 1.05246100 0.01752917
v 0.07185300 1.06915899 -0.12822383
v -0.05080800 0.99999997 0.05080816
v -0.07185300 0.99999998 0.00000016
v -0.04242600 0.52263894 0.05002009
v 0.00000000 0.99999997 0.07185316
v -0.05080800 0.99999997 0.05080816
v 0.00000000 0.52263894 0.06759309
v 0.04242600 0.52263894 0.05002009
v 0.00000000 0.99999997 0.07185316
v 0.00000000 0.52263894 0.06759309
v 0.05080800 0.99999997 0.05080816
v 0.05474300 -0.02424500 -0.01550200
v 0.05080800 0.99999997 0.05080816
v 0.07185300 0.99999998 0.00000016
v 0.07185300 0.99999998 0.00000016
v 0.04242600 0.52263896 -0.03483291
v 0.05080800 0.99999999 -0.05080784
v 0.06000000 0.52263895 0.00759308
v 0.00000000 0.99999999 -0.07185283
v 0.04242600 0.52263896 -0.03483291
v 0.00000000 0.52263896 -0.05240691
v 0.05080800 0.99999999 -0.05080784
f 1 2 3
f 4 2 1
f 5 6 7
f 6 5 8
f 9 10 11
f 12 9 11
f 13 14 15
f 14 13 16
f 17 18 19
f 20 17 19
f 21 22 23
f 22 21 24
f 25 26 27
f 26 25 28
f 29 30 31
f 30 29 32
f 30 33 34
f 32 29 35
f 32 33 30
f 33 32 36
f 37 38 39
f 38 37 40
f 41 42 43
f 41 43 44
f 45 46 47
f 45 47 48
f 49 50 51
f 51 52 49
f 53 54 55
f 54 53 56
f 57 58 59
f 58 57 60
f 61 62 63
f 62 61 64
f 65 66 67
f 65 68 66
f 69 70 71
f 72 70 69
f 73 74 75
f 74 73 76
f 77 78 79
f 78 77 80
f 81 82 83
f 84 82 81
f 85 86 87
f 88 86 85
f 89 90 91
f 90 89 92
f 93 94 95
f 94 93 96
f 97 98 99
f 97 99 100
f 101 98 97
f 102 103 104
f 103 98 101
f 103 102 98
f 105 106 107
f 108 106 105
f 109 110 111
f 112 110 109
f 113 114 115
f 114 113 116
f 117 118 119
f 118 117 120
f 121 122 123
f 124 122 121
f 125 126 127
f 128 126 125
f 129 130 131
f 130 129 132
f 133 134 135
f 136 134 133
f 137 138 139
f 140 138 137
f 141 142 143
f 144 142 141
f 145 146 147
f 146 145 148
f 149 150 151
f 152 150 149
f 153 154 155
f 154 153 156
f 157 158 159
f 158 157 160
f 161 162 163
f 164 162 161
f 165 166 167
f 166 165 168
f 169 170 171
f 172 171 170
f 173 174 175
f 174 173 176
f 177 178 179
f 178 177 180
f 181 182 183
f 184 182 181
f 185 186 187
f 187 186 188
f 189 190 191
f 190 189 192
f 193 194 195
f 194 193 196
f 197 198 199
f 198 197 200
f 201 202 203
f 202 201 204
f 205 206 207
f 208 206 205
f 209 210 211
f 212 209 211
f 213 214 215
f 214 213 216
f 217 218 219
f 220 218 217
f 221 222 223
f 222 221 224
f 225 226 227
f 226 225 228
f 229 230 231
f 231 230 232
f 233 234 235
f 234 233 236
f 237 238 239
f 240 239 238
f 241 242 243
f 244 243 242
f 245 246 247
f 247 248 245
f 249 250 251
f 252 251 250
f 253 254 255
f 254 253 256
f 257 258 259
f 260 259 258
f 261 262 263
f 264 262 261
f 265 266 267
f 266 265 268
f 269 270 271
f 270 269 272
f 273 274 275
f 276 277 278
f 277 276 279
f 280 281 282
f 281 280 283
f 284 285 286
f 284 287 285
f 288 289 290
f 290 291 288
f 292 293 294
f 292 295 293
f 296 297 298
f 298 299 296
f 300 301 302
f 300 303 301
f 304 305 306
f 304 307 305
f 308 309 310
f 309 308 311
f 312 313 314
f 313 312 315
f 316 317 318
f 317 316 319
f 320 321 322
f 321 320 323
f 324 325 326
f 325 324 327
f 328 329 330
f 330 331 328
f 332 333 334
f 333 332 335
f 336 337 338
f 337 336 339
f 340 341 342
f 341 340 343
f 344 345 346
f 345 344 347
f 348 349 350
f 348 351 349
f 352 353 354
f 354 355 352
f 356 357 358
f 356 359 357
f 360 361 362
f 362 363 360
f 364 365 366
f 365 364 367
f 368 369 370
f 369 368 371
f 372 373 374
f 373 372 375
f 376 377 378
f 377 376 379
f 380 381 382
f 380 383 381
f 384 385 386
f 386 387 384
f 388 389 390
f 388 391 389
f 392 393 394
f 393 392 395
f 396 397 398
f 397 396 399
f 400 401 402
f 402 403 400
f 404 405 406
f 405 404 407
f 285 408 409
f 408 285 287
f 410 411 412
f 411 410 413
f 414 415 416
f 415 414 417
f 274 273 418
f 419 274 420
f 419 275 274
f 421 422 423
f 421 424 422
f 425 426 427
f 426 425 428

