# far skyline silhouette rings r470/r640, 760 tris, UV.x 0 bottom 1 top
# generated by gen_layout.py (box). x is negated for Unity OBJ import.
v -470.0000 -8.0000 0.0000
v -470.0000 67.7142 0.0000
v -469.7137 -8.0000 16.4028
v -469.7137 65.6283 16.4028
v -468.8551 -8.0000 32.7855
v -468.8551 63.9267 32.7855
v -467.4253 -8.0000 49.1284
v -467.4253 61.0511 49.1284
v -465.4260 -8.0000 65.4114
v -465.4260 59.5556 65.4114
v -462.8596 -8.0000 81.6146
v -462.8596 55.9472 81.6146
v -459.7294 -8.0000 97.7185
v -459.7294 53.5901 97.7185
v -456.0390 -8.0000 113.7033
v -456.0390 54.8207 113.7033
v -451.7930 -8.0000 129.5496
v -451.7930 54.9306 129.5496
v -446.9966 -8.0000 145.2380
v -446.9966 50.2468 145.2380
v -441.6555 -8.0000 160.7495
v -441.6555 47.7908 160.7495
v -435.7764 -8.0000 176.0651
v -435.7764 47.5284 176.0651
v -429.3664 -8.0000 191.1662
v -429.3664 49.8644 191.1662
v -422.4332 -8.0000 206.0344
v -422.4332 49.3056 206.0344
v -414.9854 -8.0000 220.6516
v -414.9854 46.5744 220.6516
v -407.0319 -8.0000 235.0000
v -407.0319 43.5555 235.0000
v -398.5826 -8.0000 249.0621
v -398.5826 39.5002 249.0621
v -389.6477 -8.0000 262.8207
v -389.6477 39.9738 262.8207
v -380.2380 -8.0000 276.2591
v -380.2380 37.1657 276.2591
v -370.3651 -8.0000 289.3609
v -370.3651 34.0303 289.3609
v -360.0409 -8.0000 302.1102
v -360.0409 35.5621 302.1102
v -349.2781 -8.0000 314.4914
v -349.2781 37.3206 314.4914
v -338.0897 -8.0000 326.4894
v -338.0897 36.2093 326.4894
v -326.4894 -8.0000 338.0897
v -326.4894 34.7020 338.0897
v -314.4914 -8.0000 349.2781
v -314.4914 37.2211 349.2781
v -302.1102 -8.0000 360.0409
v -302.1102 35.7473 360.0409
v -289.3609 -8.0000 370.3651
v -289.3609 35.4439 370.3651
v -276.2591 -8.0000 380.2380
v -276.2591 38.7553 380.2380
v -262.8207 -8.0000 389.6477
v -262.8207 42.4611 389.6477
v -249.0621 -8.0000 398.5826
v -249.0621 43.4996 398.5826
v -235.0000 -8.0000 407.0319
v -235.0000 46.8776 407.0319
v -220.6516 -8.0000 414.9854
v -220.6516 53.0698 414.9854
v -206.0344 -8.0000 422.4332
v -206.0344 56.6406 422.4332
v -191.1662 -8.0000 429.3664
v -191.1662 56.5896 429.3664
v -176.0651 -8.0000 435.7764
v -176.0651 55.6239 435.7764
v -160.7495 -8.0000 441.6555
v -160.7495 57.0372 441.6555
v -145.2380 -8.0000 446.9966
v -145.2380 59.3698 446.9966
v -129.5496 -8.0000 451.7930
v -129.5496 56.3509 451.7930
v -113.7033 -8.0000 456.0390
v -113.7033 54.5755 456.0390
v -97.7185 -8.0000 459.7294
v -97.7185 49.7759 459.7294
v -81.6146 -8.0000 462.8596
v -81.6146 42.2598 462.8596
v -65.4114 -8.0000 465.4260
v -65.4114 36.4230 465.4260
v -49.1284 -8.0000 467.4253
v -49.1284 32.3280 467.4253
v -32.7855 -8.0000 468.8551
v -32.7855 28.9453 468.8551
v -16.4028 -8.0000 469.7137
v -16.4028 28.4650 469.7137
v -0.0000 -8.0000 470.0000
v -0.0000 30.3440 470.0000
v 16.4028 -8.0000 469.7137
v 16.4028 30.1190 469.7137
v 32.7855 -8.0000 468.8551
v 32.7855 35.8788 468.8551
v 49.1284 -8.0000 467.4253
v 49.1284 41.8370 467.4253
v 65.4114 -8.0000 465.4260
v 65.4114 44.8657 465.4260
v 81.6146 -8.0000 462.8596
v 81.6146 49.1920 462.8596
v 97.7185 -8.0000 459.7294
v 97.7185 52.9830 459.7294
v 113.7033 -8.0000 456.0390
v 113.7033 58.5627 456.0390
v 129.5496 -8.0000 451.7930
v 129.5496 60.5799 451.7930
v 145.2380 -8.0000 446.9966
v 145.2380 63.4472 446.9966
v 160.7495 -8.0000 441.6555
v 160.7495 67.3681 441.6555
v 176.0651 -8.0000 435.7764
v 176.0651 69.3551 435.7764
v 191.1662 -8.0000 429.3664
v 191.1662 65.1673 429.3664
v 206.0344 -8.0000 422.4332
v 206.0344 56.9455 422.4332
v 220.6516 -8.0000 414.9854
v 220.6516 49.3488 414.9854
v 235.0000 -8.0000 407.0319
v 235.0000 42.9803 407.0319
v 249.0621 -8.0000 398.5826
v 249.0621 37.9920 398.5826
v 262.8207 -8.0000 389.6477
v 262.8207 33.5260 389.6477
v 276.2591 -8.0000 380.2380
v 276.2591 29.0469 380.2380
v 289.3609 -8.0000 370.3651
v 289.3609 28.1202 370.3651
v 302.1102 -8.0000 360.0409
v 302.1102 25.2070 360.0409
v 314.4914 -8.0000 349.2781
v 314.4914 25.0388 349.2781
v 326.4894 -8.0000 338.0897
v 326.4894 25.2130 338.0897
v 338.0897 -8.0000 326.4894
v 338.0897 26.2980 326.4894
v 349.2781 -8.0000 314.4914
v 349.2781 31.3084 314.4914
v 360.0409 -8.0000 302.1102
v 360.0409 38.2291 302.1102
v 370.3651 -8.0000 289.3609
v 370.3651 42.7646 289.3609
v 380.2380 -8.0000 276.2591
v 380.2380 45.1716 276.2591
v 389.6477 -8.0000 262.8207
v 389.6477 50.4553 262.8207
v 398.5826 -8.0000 249.0621
v 398.5826 58.8563 249.0621
v 407.0319 -8.0000 235.0000
v 407.0319 65.9647 235.0000
v 414.9854 -8.0000 220.6516
v 414.9854 69.1351 220.6516
v 422.4332 -8.0000 206.0344
v 422.4332 70.0000 206.0344
v 429.3664 -8.0000 191.1662
v 429.3664 68.2320 191.1662
v 435.7764 -8.0000 176.0651
v 435.7764 67.7571 176.0651
v 441.6555 -8.0000 160.7495
v 441.6555 66.3444 160.7495
v 446.9966 -8.0000 145.2380
v 446.9966 63.8941 145.2380
v 451.7930 -8.0000 129.5496
v 451.7930 59.1058 129.5496
v 456.0390 -8.0000 113.7033
v 456.0390 55.6784 113.7033
v 459.7294 -8.0000 97.7185
v 459.7294 48.8971 97.7185
v 462.8596 -8.0000 81.6146
v 462.8596 41.2302 81.6146
v 465.4260 -8.0000 65.4114
v 465.4260 38.7275 65.4114
v 467.4253 -8.0000 49.1284
v 467.4253 32.3789 49.1284
v 468.8551 -8.0000 32.7855
v 468.8551 27.3082 32.7855
v 469.7137 -8.0000 16.4028
v 469.7137 28.7174 16.4028
v 470.0000 -8.0000 0.0000
v 470.0000 34.3306 0.0000
v 469.7137 -8.0000 -16.4028
v 469.7137 38.5655 -16.4028
v 468.8551 -8.0000 -32.7855
v 468.8551 43.2931 -32.7855
v 467.4253 -8.0000 -49.1284
v 467.4253 48.3434 -49.1284
v 465.4260 -8.0000 -65.4114
v 465.4260 48.2260 -65.4114
v 462.8596 -8.0000 -81.6146
v 462.8596 51.8456 -81.6146
v 459.7294 -8.0000 -97.7185
v 459.7294 56.3047 -97.7185
v 456.0390 -8.0000 -113.7033
v 456.0390 55.9670 -113.7033
v 451.7930 -8.0000 -129.5496
v 451.7930 56.4472 -129.5496
v 446.9966 -8.0000 -145.2380
v 446.9966 58.5176 -145.2380
v 441.6555 -8.0000 -160.7495
v 441.6555 58.2728 -160.7495
v 435.7764 -8.0000 -176.0651
v 435.7764 55.6772 -176.0651
v 429.3664 -8.0000 -191.1662
v 429.3664 53.1514 -191.1662
v 422.4332 -8.0000 -206.0344
v 422.4332 52.9586 -206.0344
v 414.9854 -8.0000 -220.6516
v 414.9854 53.6604 -220.6516
v 407.0319 -8.0000 -235.0000
v 407.0319 54.1005 -235.0000
v 398.5826 -8.0000 -249.0621
v 398.5826 52.1204 -249.0621
v 389.6477 -8.0000 -262.8207
v 389.6477 53.1561 -262.8207
v 380.2380 -8.0000 -276.2591
v 380.2380 53.8288 -276.2591
v 370.3651 -8.0000 -289.3609
v 370.3651 55.0935 -289.3609
v 360.0409 -8.0000 -302.1102
v 360.0409 53.4607 -302.1102
v 349.2781 -8.0000 -314.4914
v 349.2781 53.8722 -314.4914
v 338.0897 -8.0000 -326.4894
v 338.0897 52.9519 -326.4894
v 326.4894 -8.0000 -338.0897
v 326.4894 50.0725 -338.0897
v 314.4914 -8.0000 -349.2781
v 314.4914 51.6464 -349.2781
v 302.1102 -8.0000 -360.0409
v 302.1102 52.4845 -360.0409
v 289.3609 -8.0000 -370.3651
v 289.3609 54.2428 -370.3651
v 276.2591 -8.0000 -380.2380
v 276.2591 52.8866 -380.2380
v 262.8207 -8.0000 -389.6477
v 262.8207 51.2978 -389.6477
v 249.0621 -8.0000 -398.5826
v 249.0621 50.8840 -398.5826
v 235.0000 -8.0000 -407.0319
v 235.0000 50.2258 -407.0319
v 220.6516 -8.0000 -414.9854
v 220.6516 49.7134 -414.9854
v 206.0344 -8.0000 -422.4332
v 206.0344 50.2086 -422.4332
v 191.1662 -8.0000 -429.3664
v 191.1662 50.9307 -429.3664
v 176.0651 -8.0000 -435.7764
v 176.0651 48.3999 -435.7764
v 160.7495 -8.0000 -441.6555
v 160.7495 44.6780 -441.6555
v 145.2380 -8.0000 -446.9966
v 145.2380 41.9945 -446.9966
v 129.5496 -8.0000 -451.7930
v 129.5496 37.9729 -451.7930
v 113.7033 -8.0000 -456.0390
v 113.7033 35.7699 -456.0390
v 97.7185 -8.0000 -459.7294
v 97.7185 33.9542 -459.7294
v 81.6146 -8.0000 -462.8596
v 81.6146 33.1079 -462.8596
v 65.4114 -8.0000 -465.4260
v 65.4114 32.1195 -465.4260
v 49.1284 -8.0000 -467.4253
v 49.1284 32.0858 -467.4253
v 32.7855 -8.0000 -468.8551
v 32.7855 30.7462 -468.8551
v 16.4028 -8.0000 -469.7137
v 16.4028 27.1015 -469.7137
v 0.0000 -8.0000 -470.0000
v 0.0000 27.6280 -470.0000
v -16.4028 -8.0000 -469.7137
v -16.4028 27.4267 -469.7137
v -32.7855 -8.0000 -468.8551
v -32.7855 27.1031 -468.8551
v -49.1284 -8.0000 -467.4253
v -49.1284 28.4604 -467.4253
v -65.4114 -8.0000 -465.4260
v -65.4114 28.3669 -465.4260
v -81.6146 -8.0000 -462.8596
v -81.6146 27.7001 -462.8596
v -97.7185 -8.0000 -459.7294
v -97.7185 30.2534 -459.7294
v -113.7033 -8.0000 -456.0390
v -113.7033 32.8655 -456.0390
v -129.5496 -8.0000 -451.7930
v -129.5496 37.6564 -451.7930
v -145.2380 -8.0000 -446.9966
v -145.2380 38.2140 -446.9966
v -160.7495 -8.0000 -441.6555
v -160.7495 36.6397 -441.6555
v -176.0651 -8.0000 -435.7764
v -176.0651 37.3111 -435.7764
v -191.1662 -8.0000 -429.3664
v -191.1662 42.0943 -429.3664
v -206.0344 -8.0000 -422.4332
v -206.0344 42.7976 -422.4332
v -220.6516 -8.0000 -414.9854
v -220.6516 42.8165 -414.9854
v -235.0000 -8.0000 -407.0319
v -235.0000 44.2829 -407.0319
v -249.0621 -8.0000 -398.5826
v -249.0621 48.2166 -398.5826
v -262.8207 -8.0000 -389.6477
v -262.8207 48.2339 -389.6477
v -276.2591 -8.0000 -380.2380
v -276.2591 48.6038 -380.2380
v -289.3609 -8.0000 -370.3651
v -289.3609 52.7076 -370.3651
v -302.1102 -8.0000 -360.0409
v -302.1102 54.4533 -360.0409
v -314.4914 -8.0000 -349.2781
v -314.4914 55.5338 -349.2781
v -326.4894 -8.0000 -338.0897
v -326.4894 57.9396 -338.0897
v -338.0897 -8.0000 -326.4894
v -338.0897 57.4688 -326.4894
v -349.2781 -8.0000 -314.4914
v -349.2781 58.1215 -314.4914
v -360.0409 -8.0000 -302.1102
v -360.0409 59.5408 -302.1102
v -370.3651 -8.0000 -289.3609
v -370.3651 59.0417 -289.3609
v -380.2380 -8.0000 -276.2591
v -380.2380 56.1738 -276.2591
v -389.6477 -8.0000 -262.8207
v -389.6477 57.9695 -262.8207
v -398.5826 -8.0000 -249.0621
v -398.5826 59.2280 -249.0621
v -407.0319 -8.0000 -235.0000
v -407.0319 57.1363 -235.0000
v -414.9854 -8.0000 -220.6516
v -414.9854 55.5075 -220.6516
v -422.4332 -8.0000 -206.0344
v -422.4332 58.5360 -206.0344
v -429.3664 -8.0000 -191.1662
v -429.3664 60.4127 -191.1662
v -435.7764 -8.0000 -176.0651
v -435.7764 62.6807 -176.0651
v -441.6555 -8.0000 -160.7495
v -441.6555 66.4753 -160.7495
v -446.9966 -8.0000 -145.2380
v -446.9966 65.0653 -145.2380
v -451.7930 -8.0000 -129.5496
v -451.7930 63.3824 -129.5496
v -456.0390 -8.0000 -113.7033
v -456.0390 61.9159 -113.7033
v -459.7294 -8.0000 -97.7185
v -459.7294 59.8329 -97.7185
v -462.8596 -8.0000 -81.6146
v -462.8596 56.8491 -81.6146
v -465.4260 -8.0000 -65.4114
v -465.4260 56.4125 -65.4114
v -467.4253 -8.0000 -49.1284
v -467.4253 54.1142 -49.1284
v -468.8551 -8.0000 -32.7855
v -468.8551 51.7416 -32.7855
v -469.7137 -8.0000 -16.4028
v -469.7137 52.8325 -16.4028
v -470.0000 -8.0000 -0.0000
v -470.0000 52.9277 -0.0000
v -640.0000 -8.0000 0.0000
v -640.0000 72.0983 0.0000
v -639.6842 -8.0000 20.1029
v -639.6842 69.3638 20.1029
v -638.7371 -8.0000 40.1859
v -638.7371 65.8010 40.1859
v -637.1597 -8.0000 60.2293
v -637.1597 67.2890 60.2293
v -634.9534 -8.0000 80.2133
v -634.9534 62.8947 80.2133
v -632.1205 -8.0000 100.1181
v -632.1205 68.8220 100.1181
v -628.6638 -8.0000 119.9240
v -628.6638 67.5981 119.9240
v -624.5867 -8.0000 139.6117
v -624.5867 74.4112 139.6117
v -619.8932 -8.0000 159.1615
v -619.8932 89.3368 159.1615
v -614.5880 -8.0000 178.5543
v -614.5880 95.2112 178.5543
v -608.6762 -8.0000 197.7709
v -608.6762 99.2601 197.7709
v -602.1637 -8.0000 216.7923
v -602.1637 101.6850 216.7923
v -595.0570 -8.0000 235.5997
v -595.0570 99.3016 235.5997
v -587.3630 -8.0000 254.1747
v -587.3630 90.1413 254.1747
v -579.0893 -8.0000 272.4987
v -579.0893 83.7932 272.4987
v -570.2442 -8.0000 290.5539
v -570.2442 77.7666 290.5539
v -560.8363 -8.0000 308.3224
v -560.8363 79.0183 308.3224
v -550.8749 -8.0000 325.7865
v -550.8749 78.3059 325.7865
v -540.3699 -8.0000 342.9291
v -540.3699 75.4959 342.9291
v -529.3316 -8.0000 359.7334
v -529.3316 71.3553 359.7334
v -517.7709 -8.0000 376.1826
v -517.7709 63.7315 376.1826
v -505.6992 -8.0000 392.2605
v -505.6992 57.9676 392.2605
v -493.1285 -8.0000 407.9514
v -493.1285 54.4705 407.9514
v -480.0711 -8.0000 423.2396
v -480.0711 52.9462 423.2396
v -466.5399 -8.0000 438.1101
v -466.5399 54.5162 438.1101
v -452.5483 -8.0000 452.5483
v -452.5483 59.8580 452.5483
v -438.1101 -8.0000 466.5399
v -438.1101 58.0063 466.5399
v -423.2396 -8.0000 480.0711
v -423.2396 58.6956 480.0711
v -407.9514 -8.0000 493.1285
v -407.9514 65.4933 493.1285
v -392.2605 -8.0000 505.6992
v -392.2605 59.0810 505.6992
v -376.1826 -8.0000 517.7709
v -376.1826 64.6827 517.7709
v -359.7334 -8.0000 529.3316
v -359.7334 65.1792 529.3316
v -342.9291 -8.0000 540.3699
v -342.9291 70.9390 540.3699
v -325.7865 -8.0000 550.8749
v -325.7865 72.2692 550.8749
v -308.3224 -8.0000 560.8363
v -308.3224 71.7074 560.8363
v -290.5539 -8.0000 570.2442
v -290.5539 72.7066 570.2442
v -272.4987 -8.0000 579.0893
v -272.4987 80.6873 579.0893
v -254.1747 -8.0000 587.3630
v -254.1747 94.2453 587.3630
v -235.5997 -8.0000 595.0570
v -235.5997 97.8755 595.0570
v -216.7923 -8.0000 602.1637
v -216.7923 95.5526 602.1637
v -197.7709 -8.0000 608.6762
v -197.7709 95.0610 608.6762
v -178.5543 -8.0000 614.5880
v -178.5543 99.8029 614.5880
v -159.1615 -8.0000 619.8932
v -159.1615 107.4295 619.8932
v -139.6117 -8.0000 624.5867
v -139.6117 110.1896 624.5867
v -119.9240 -8.0000 628.6638
v -119.9240 105.2849 628.6638
v -100.1181 -8.0000 632.1205
v -100.1181 102.5821 632.1205
v -80.2133 -8.0000 634.9534
v -80.2133 100.7159 634.9534
v -60.2293 -8.0000 637.1597
v -60.2293 102.0774 637.1597
v -40.1859 -8.0000 638.7371
v -40.1859 104.0504 638.7371
v -20.1029 -8.0000 639.6842
v -20.1029 107.1059 639.6842
v -0.0000 -8.0000 640.0000
v -0.0000 113.5704 640.0000
v 20.1029 -8.0000 639.6842
v 20.1029 119.7764 639.6842
v 40.1859 -8.0000 638.7371
v 40.1859 119.9867 638.7371
v 60.2293 -8.0000 637.1597
v 60.2293 113.3845 637.1597
v 80.2133 -8.0000 634.9534
v 80.2133 109.9954 634.9534
v 100.1181 -8.0000 632.1205
v 100.1181 113.1689 632.1205
v 119.9240 -8.0000 628.6638
v 119.9240 120.0656 628.6638
v 139.6117 -8.0000 624.5867
v 139.6117 125.2818 624.5867
v 159.1615 -8.0000 619.8932
v 159.1615 132.6120 619.8932
v 178.5543 -8.0000 614.5880
v 178.5543 132.9251 614.5880
v 197.7709 -8.0000 608.6762
v 197.7709 130.4689 608.6762
v 216.7923 -8.0000 602.1637
v 216.7923 117.5569 602.1637
v 235.5997 -8.0000 595.0570
v 235.5997 115.8441 595.0570
v 254.1747 -8.0000 587.3630
v 254.1747 108.3757 587.3630
v 272.4987 -8.0000 579.0893
v 272.4987 98.2435 579.0893
v 290.5539 -8.0000 570.2442
v 290.5539 94.8376 570.2442
v 308.3224 -8.0000 560.8363
v 308.3224 93.0343 560.8363
v 325.7865 -8.0000 550.8749
v 325.7865 93.0258 550.8749
v 342.9291 -8.0000 540.3699
v 342.9291 91.2700 540.3699
v 359.7334 -8.0000 529.3316
v 359.7334 88.5021 529.3316
v 376.1826 -8.0000 517.7709
v 376.1826 88.8012 517.7709
v 392.2605 -8.0000 505.6992
v 392.2605 84.8789 505.6992
v 407.9514 -8.0000 493.1285
v 407.9514 84.3972 493.1285
v 423.2396 -8.0000 480.0711
v 423.2396 85.6462 480.0711
v 438.1101 -8.0000 466.5399
v 438.1101 94.3926 466.5399
v 452.5483 -8.0000 452.5483
v 452.5483 100.0688 452.5483
v 466.5399 -8.0000 438.1101
v 466.5399 105.3902 438.1101
v 480.0711 -8.0000 423.2396
v 480.0711 105.8868 423.2396
v 493.1285 -8.0000 407.9514
v 493.1285 110.8849 407.9514
v 505.6992 -8.0000 392.2605
v 505.6992 108.9396 392.2605
v 517.7709 -8.0000 376.1826
v 517.7709 106.6787 376.1826
v 529.3316 -8.0000 359.7334
v 529.3316 99.3598 359.7334
v 540.3699 -8.0000 342.9291
v 540.3699 98.7493 342.9291
v 550.8749 -8.0000 325.7865
v 550.8749 99.1448 325.7865
v 560.8363 -8.0000 308.3224
v 560.8363 99.4987 308.3224
v 570.2442 -8.0000 290.5539
v 570.2442 105.6472 290.5539
v 579.0893 -8.0000 272.4987
v 579.0893 111.5721 272.4987
v 587.3630 -8.0000 254.1747
v 587.3630 108.1230 254.1747
v 595.0570 -8.0000 235.5997
v 595.0570 109.1178 235.5997
v 602.1637 -8.0000 216.7923
v 602.1637 116.3776 216.7923
v 608.6762 -8.0000 197.7709
v 608.6762 113.0597 197.7709
v 614.5880 -8.0000 178.5543
v 614.5880 109.7087 178.5543
v 619.8932 -8.0000 159.1615
v 619.8932 104.4727 159.1615
v 624.5867 -8.0000 139.6117
v 624.5867 103.7355 139.6117
v 628.6638 -8.0000 119.9240
v 628.6638 106.1409 119.9240
v 632.1205 -8.0000 100.1181
v 632.1205 102.8362 100.1181
v 634.9534 -8.0000 80.2133
v 634.9534 101.2454 80.2133
v 637.1597 -8.0000 60.2293
v 637.1597 97.9589 60.2293
v 638.7371 -8.0000 40.1859
v 638.7371 95.7963 40.1859
v 639.6842 -8.0000 20.1029
v 639.6842 87.6349 20.1029
v 640.0000 -8.0000 0.0000
v 640.0000 82.3948 0.0000
v 639.6842 -8.0000 -20.1029
v 639.6842 75.2892 -20.1029
v 638.7371 -8.0000 -40.1859
v 638.7371 75.8733 -40.1859
v 637.1597 -8.0000 -60.2293
v 637.1597 70.3346 -60.2293
v 634.9534 -8.0000 -80.2133
v 634.9534 64.3332 -80.2133
v 632.1205 -8.0000 -100.1181
v 632.1205 57.9908 -100.1181
v 628.6638 -8.0000 -119.9240
v 628.6638 55.5786 -119.9240
v 624.5867 -8.0000 -139.6117
v 624.5867 55.9612 -139.6117
v 619.8932 -8.0000 -159.1615
v 619.8932 53.0020 -159.1615
v 614.5880 -8.0000 -178.5543
v 614.5880 51.5149 -178.5543
v 608.6762 -8.0000 -197.7709
v 608.6762 59.9522 -197.7709
v 602.1637 -8.0000 -216.7923
v 602.1637 56.3112 -216.7923
v 595.0570 -8.0000 -235.5997
v 595.0570 56.8090 -235.5997
v 587.3630 -8.0000 -254.1747
v 587.3630 59.6579 -254.1747
v 579.0893 -8.0000 -272.4987
v 579.0893 73.8486 -272.4987
v 570.2442 -8.0000 -290.5539
v 570.2442 85.2235 -290.5539
v 560.8363 -8.0000 -308.3224
v 560.8363 97.5446 -308.3224
v 550.8749 -8.0000 -325.7865
v 550.8749 99.9954 -325.7865
v 540.3699 -8.0000 -342.9291
v 540.3699 111.0080 -342.9291
v 529.3316 -8.0000 -359.7334
v 529.3316 118.2715 -359.7334
v 517.7709 -8.0000 -376.1826
v 517.7709 128.8982 -376.1826
v 505.6992 -8.0000 -392.2605
v 505.6992 139.3843 -392.2605
v 493.1285 -8.0000 -407.9514
v 493.1285 139.0403 -407.9514
v 480.0711 -8.0000 -423.2396
v 480.0711 133.1340 -423.2396
v 466.5399 -8.0000 -438.1101
v 466.5399 126.0393 -438.1101
v 452.5483 -8.0000 -452.5483
v 452.5483 125.7802 -452.5483
v 438.1101 -8.0000 -466.5399
v 438.1101 120.4241 -466.5399
v 423.2396 -8.0000 -480.0711
v 423.2396 114.7254 -480.0711
v 407.9514 -8.0000 -493.1285
v 407.9514 103.2415 -493.1285
v 392.2605 -8.0000 -505.6992
v 392.2605 91.3257 -505.6992
v 376.1826 -8.0000 -517.7709
v 376.1826 86.2027 -517.7709
v 359.7334 -8.0000 -529.3316
v 359.7334 77.0007 -529.3316
v 342.9291 -8.0000 -540.3699
v 342.9291 69.1319 -540.3699
v 325.7865 -8.0000 -550.8749
v 325.7865 70.3848 -550.8749
v 308.3224 -8.0000 -560.8363
v 308.3224 74.9304 -560.8363
v 290.5539 -8.0000 -570.2442
v 290.5539 84.2521 -570.2442
v 272.4987 -8.0000 -579.0893
v 272.4987 83.0633 -579.0893
v 254.1747 -8.0000 -587.3630
v 254.1747 81.2449 -587.3630
v 235.5997 -8.0000 -595.0570
v 235.5997 77.1581 -595.0570
v 216.7923 -8.0000 -602.1637
v 216.7923 84.0110 -602.1637
v 197.7709 -8.0000 -608.6762
v 197.7709 86.0991 -608.6762
v 178.5543 -8.0000 -614.5880
v 178.5543 82.4565 -614.5880
v 159.1615 -8.0000 -619.8932
v 159.1615 82.9373 -619.8932
v 139.6117 -8.0000 -624.5867
v 139.6117 80.3855 -624.5867
v 119.9240 -8.0000 -628.6638
v 119.9240 84.9542 -628.6638
v 100.1181 -8.0000 -632.1205
v 100.1181 96.6922 -632.1205
v 80.2133 -8.0000 -634.9534
v 80.2133 103.7240 -634.9534
v 60.2293 -8.0000 -637.1597
v 60.2293 105.2373 -637.1597
v 40.1859 -8.0000 -638.7371
v 40.1859 109.5548 -638.7371
v 20.1029 -8.0000 -639.6842
v 20.1029 102.7405 -639.6842
v 0.0000 -8.0000 -640.0000
v 0.0000 96.9132 -640.0000
v -20.1029 -8.0000 -639.6842
v -20.1029 87.4206 -639.6842
v -40.1859 -8.0000 -638.7371
v -40.1859 83.8681 -638.7371
v -60.2293 -8.0000 -637.1597
v -60.2293 82.2684 -637.1597
v -80.2133 -8.0000 -634.9534
v -80.2133 84.2504 -634.9534
v -100.1181 -8.0000 -632.1205
v -100.1181 81.9709 -632.1205
v -119.9240 -8.0000 -628.6638
v -119.9240 82.1538 -628.6638
v -139.6117 -8.0000 -624.5867
v -139.6117 86.1940 -624.5867
v -159.1615 -8.0000 -619.8932
v -159.1615 99.4177 -619.8932
v -178.5543 -8.0000 -614.5880
v -178.5543 101.6196 -614.5880
v -197.7709 -8.0000 -608.6762
v -197.7709 100.9608 -608.6762
v -216.7923 -8.0000 -602.1637
v -216.7923 100.9980 -602.1637
v -235.5997 -8.0000 -595.0570
v -235.5997 98.5728 -595.0570
v -254.1747 -8.0000 -587.3630
v -254.1747 107.4713 -587.3630
v -272.4987 -8.0000 -579.0893
v -272.4987 107.4931 -579.0893
v -290.5539 -8.0000 -570.2442
v -290.5539 108.5237 -570.2442
v -308.3224 -8.0000 -560.8363
v -308.3224 99.7535 -560.8363
v -325.7865 -8.0000 -550.8749
v -325.7865 100.8035 -550.8749
v -342.9291 -8.0000 -540.3699
v -342.9291 99.4296 -540.3699
v -359.7334 -8.0000 -529.3316
v -359.7334 102.7210 -529.3316
v -376.1826 -8.0000 -517.7709
v -376.1826 107.7763 -517.7709
v -392.2605 -8.0000 -505.6992
v -392.2605 119.8446 -505.6992
v -407.9514 -8.0000 -493.1285
v -407.9514 121.9954 -493.1285
v -423.2396 -8.0000 -480.0711
v -423.2396 130.1353 -480.0711
v -438.1101 -8.0000 -466.5399
v -438.1101 129.9216 -466.5399
v -452.5483 -8.0000 -452.5483
v -452.5483 132.4824 -452.5483
v -466.5399 -8.0000 -438.1101
v -466.5399 138.4832 -438.1101
v -480.0711 -8.0000 -423.2396
v -480.0711 146.8905 -423.2396
v -493.1285 -8.0000 -407.9514
v -493.1285 150.0000 -407.9514
v -505.6992 -8.0000 -392.2605
v -505.6992 139.6177 -392.2605
v -517.7709 -8.0000 -376.1826
v -517.7709 132.0904 -376.1826
v -529.3316 -8.0000 -359.7334
v -529.3316 126.8425 -359.7334
v -540.3699 -8.0000 -342.9291
v -540.3699 122.6674 -342.9291
v -550.8749 -8.0000 -325.7865
v -550.8749 107.6457 -325.7865
v -560.8363 -8.0000 -308.3224
v -560.8363 109.7321 -308.3224
v -570.2442 -8.0000 -290.5539
v -570.2442 114.7024 -290.5539
v -579.0893 -8.0000 -272.4987
v -579.0893 110.3206 -272.4987
v -587.3630 -8.0000 -254.1747
v -587.3630 105.8753 -254.1747
v -595.0570 -8.0000 -235.5997
v -595.0570 100.5712 -235.5997
v -602.1637 -8.0000 -216.7923
v -602.1637 100.2347 -216.7923
v -608.6762 -8.0000 -197.7709
v -608.6762 103.2511 -197.7709
v -614.5880 -8.0000 -178.5543
v -614.5880 101.8041 -178.5543
v -619.8932 -8.0000 -159.1615
v -619.8932 103.7209 -159.1615
v -624.5867 -8.0000 -139.6117
v -624.5867 104.1207 -139.6117
v -628.6638 -8.0000 -119.9240
v -628.6638 107.6524 -119.9240
v -632.1205 -8.0000 -100.1181
v -632.1205 114.3744 -100.1181
v -634.9534 -8.0000 -80.2133
v -634.9534 110.0671 -80.2133
v -637.1597 -8.0000 -60.2293
v -637.1597 110.7988 -60.2293
v -638.7371 -8.0000 -40.1859
v -638.7371 119.7430 -40.1859
v -639.6842 -8.0000 -20.1029
v -639.6842 123.4233 -20.1029
v -640.0000 -8.0000 -0.0000
v -640.0000 124.8066 -0.0000
vt 0.00000 0.00000
vt 1.00000 0.00000
vt 0.00000 0.00000
vt 1.00000 0.00000
vt 0.00000 0.00000
vt 1.00000 0.00000
vt 0.00000 0.00000
vt 1.00000 0.00000
vt 0.00000 0.00000
vt 1.00000 0.00000
vt 0.00000 0.00000
vt 1.00000 0.00000
vt 0.00000 0.00000
vt 1.00000 0.00000
vt 0.00000 0.00000
vt 1.00000 0.00000
vt 0.00000 0.00000
vt 1.00000 0.00000
vt 0.00000 0.00000
vt 1.00000 0.00000
vt 0.00000 0.00000
vt 1.00000 0.00000
vt 0.00000 0.00000
vt 1.00000 0.00000
vt 0.00000 0.00000
vt 1.00000 0.00000
vt 0.00000 0.00000
vt 1.00000 0.00000
vt 0.00000 0.00000
vt 1.00000 0.00000
vt 0.00000 0.00000
vt 1.00000 0.00000
vt 0.00000 0.00000
vt 1.00000 0.00000
vt 0.00000 0.00000
vt 1.00000 0.00000
vt 0.00000 0.00000
vt 1.00000 0.00000
vt 0.00000 0.00000
vt 1.00000 0.00000
vt 0.00000 0.00000
vt 1.00000 0.00000
vt 0.00000 0.00000
vt 1.00000 0.00000
vt 0.00000 0.00000
vt 1.00000 0.00000
vt 0.00000 0.00000
vt 1.00000 0.00000
vt 0.00000 0.00000
vt 1.00000 0.00000
vt 0.00000 0.00000
vt 1.00000 0.00000
vt 0.00000 0.00000
vt 1.00000 0.00000
vt 0.00000 0.00000
vt 1.00000 0.00000
vt 0.00000 0.00000
vt 1.00000 0.00000
vt 0.00000 0.00000
vt 1.00000 0.00000
vt 0.00000 0.00000
vt 1.00000 0.00000
vt 0.00000 0.00000
vt 1.00000 0.00000
vt 0.00000 0.00000
vt 1.00000 0.00000
vt 0.00000 0.00000
vt 1.00000 0.00000
vt 0.00000 0.00000
vt 1.00000 0.00000
vt 0.00000 0.00000
vt 1.00000 0.00000
vt 0.00000 0.00000
vt 1.00000 0.00000
vt 0.00000 0.00000
vt 1.00000 0.00000
vt 0.00000 0.00000
vt 1.00000 0.00000
vt 0.00000 0.00000
vt 1.00000 0.00000
vt 0.00000 0.00000
vt 1.00000 0.00000
vt 0.00000 0.00000
vt 1.00000 0.00000
vt 0.00000 0.00000
vt 1.00000 0.00000
vt 0.00000 0.00000
vt 1.00000 0.00000
vt 0.00000 0.00000
vt 1.00000 0.00000
vt 0.00000 0.00000
vt 1.00000 0.00000
vt 0.00000 0.00000
vt 1.00000 0.00000
vt 0.00000 0.00000
vt 1.00000 0.00000
vt 0.00000 0.00000
vt 1.00000 0.00000
vt 0.00000 0.00000
vt 1.00000 0.00000
vt 0.00000 0.00000
vt 1.00000 0.00000
vt 0.00000 0.00000
vt 1.00000 0.00000
vt 0.00000 0.00000
vt 1.00000 0.00000
vt 0.00000 0.00000
vt 1.00000 0.00000
vt 0.00000 0.00000
vt 1.00000 0.00000
vt 0.00000 0.00000
vt 1.00000 0.00000
vt 0.00000 0.00000
vt 1.00000 0.00000
vt 0.00000 0.00000
vt 1.00000 0.00000
vt 0.00000 0.00000
vt 1.00000 0.00000
vt 0.00000 0.00000
vt 1.00000 0.00000
vt 0.00000 0.00000
vt 1.00000 0.00000
vt 0.00000 0.00000
vt 1.00000 0.00000
vt 0.00000 0.00000
vt 1.00000 0.00000
vt 0.00000 0.00000
vt 1.00000 0.00000
vt 0.00000 0.00000
vt 1.00000 0.00000
vt 0.00000 0.00000
vt 1.00000 0.00000
vt 0.00000 0.00000
vt 1.00000 0.00000
vt 0.00000 0.00000
vt 1.00000 0.00000
vt 0.00000 0.00000
vt 1.00000 0.00000
vt 0.00000 0.00000
vt 1.00000 0.00000
vt 0.00000 0.00000
vt 1.00000 0.00000
vt 0.00000 0.00000
vt 1.00000 0.00000
vt 0.00000 0.00000
vt 1.00000 0.00000
vt 0.00000 0.00000
vt 1.00000 0.00000
vt 0.00000 0.00000
vt 1.00000 0.00000
vt 0.00000 0.00000
vt 1.00000 0.00000
vt 0.00000 0.00000
vt 1.00000 0.00000
vt 0.00000 0.00000
vt 1.00000 0.00000
vt 0.00000 0.00000
vt 1.00000 0.00000
vt 0.00000 0.00000
vt 1.00000 0.00000
vt 0.00000 0.00000
vt 1.00000 0.00000
vt 0.00000 0.00000
vt 1.00000 0.00000
vt 0.00000 0.00000
vt 1.00000 0.00000
vt 0.00000 0.00000
vt 1.00000 0.00000
vt 0.00000 0.00000
vt 1.00000 0.00000
vt 0.00000 0.00000
vt 1.00000 0.00000
vt 0.00000 0.00000
vt 1.00000 0.00000
vt 0.00000 0.00000
vt 1.00000 0.00000
vt 0.00000 0.00000
vt 1.00000 0.00000
vt 0.00000 0.00000
vt 1.00000 0.00000
vt 0.00000 0.00000
vt 1.00000 0.00000
vt 0.00000 0.00000
vt 1.00000 0.00000
vt 0.00000 0.00000
vt 1.00000 0.00000
vt 0.00000 0.00000
vt 1.00000 0.00000
vt 0.00000 0.00000
vt 1.00000 0.00000
vt 0.00000 0.00000
vt 1.00000 0.00000
vt 0.00000 0.00000
vt 1.00000 0.00000
vt 0.00000 0.00000
vt 1.00000 0.00000
vt 0.00000 0.00000
vt 1.00000 0.00000
vt 0.00000 0.00000
vt 1.00000 0.00000
vt 0.00000 0.00000
vt 1.00000 0.00000
vt 0.00000 0.00000
vt 1.00000 0.00000
vt 0.00000 0.00000
vt 1.00000 0.00000
vt 0.00000 0.00000
vt 1.00000 0.00000
vt 0.00000 0.00000
vt 1.00000 0.00000
vt 0.00000 0.00000
vt 1.00000 0.00000
vt 0.00000 0.00000
vt 1.00000 0.00000
vt 0.00000 0.00000
vt 1.00000 0.00000
vt 0.00000 0.00000
vt 1.00000 0.00000
vt 0.00000 0.00000
vt 1.00000 0.00000
vt 0.00000 0.00000
vt 1.00000 0.00000
vt 0.00000 0.00000
vt 1.00000 0.00000
vt 0.00000 0.00000
vt 1.00000 0.00000
vt 0.00000 0.00000
vt 1.00000 0.00000
vt 0.00000 0.00000
vt 1.00000 0.00000
vt 0.00000 0.00000
vt 1.00000 0.00000
vt 0.00000 0.00000
vt 1.00000 0.00000
vt 0.00000 0.00000
vt 1.00000 0.00000
vt 0.00000 0.00000
vt 1.00000 0.00000
vt 0.00000 0.00000
vt 1.00000 0.00000
vt 0.00000 0.00000
vt 1.00000 0.00000
vt 0.00000 0.00000
vt 1.00000 0.00000
vt 0.00000 0.00000
vt 1.00000 0.00000
vt 0.00000 0.00000
vt 1.00000 0.00000
vt 0.00000 0.00000
vt 1.00000 0.00000
vt 0.00000 0.00000
vt 1.00000 0.00000
vt 0.00000 0.00000
vt 1.00000 0.00000
vt 0.00000 0.00000
vt 1.00000 0.00000
vt 0.00000 0.00000
vt 1.00000 0.00000
vt 0.00000 0.00000
vt 1.00000 0.00000
vt 0.00000 0.00000
vt 1.00000 0.00000
vt 0.00000 0.00000
vt 1.00000 0.00000
vt 0.00000 0.00000
vt 1.00000 0.00000
vt 0.00000 0.00000
vt 1.00000 0.00000
vt 0.00000 0.00000
vt 1.00000 0.00000
vt 0.00000 0.00000
vt 1.00000 0.00000
vt 0.00000 0.00000
vt 1.00000 0.00000
vt 0.00000 0.00000
vt 1.00000 0.00000
vt 0.00000 0.00000
vt 1.00000 0.00000
vt 0.00000 0.00000
vt 1.00000 0.00000
vt 0.00000 0.00000
vt 1.00000 0.00000
vt 0.00000 0.00000
vt 1.00000 0.00000
vt 0.00000 0.00000
vt 1.00000 0.00000
vt 0.00000 0.00000
vt 1.00000 0.00000
vt 0.00000 0.00000
vt 1.00000 0.00000
vt 0.00000 0.00000
vt 1.00000 0.00000
vt 0.00000 0.00000
vt 1.00000 0.00000
vt 0.00000 0.00000
vt 1.00000 0.00000
vt 0.00000 0.00000
vt 1.00000 0.00000
vt 0.00000 0.00000
vt 1.00000 0.00000
vt 0.00000 0.00000
vt 1.00000 0.00000
vt 0.00000 0.00000
vt 1.00000 0.00000
vt 0.00000 0.00000
vt 1.00000 0.00000
vt 0.00000 0.00000
vt 1.00000 0.00000
vt 0.00000 0.00000
vt 1.00000 0.00000
vt 0.00000 0.00000
vt 1.00000 0.00000
vt 0.00000 0.00000
vt 1.00000 0.00000
vt 0.00000 0.00000
vt 1.00000 0.00000
vt 0.00000 0.00000
vt 1.00000 0.00000
vt 0.00000 0.00000
vt 1.00000 0.00000
vt 0.00000 0.00000
vt 1.00000 0.00000
vt 0.00000 0.00000
vt 1.00000 0.00000
vt 0.00000 0.00000
vt 1.00000 0.00000
vt 0.00000 0.00000
vt 1.00000 0.00000
vt 0.00000 0.00000
vt 1.00000 0.00000
vt 0.00000 0.00000
vt 1.00000 0.00000
vt 0.00000 0.00000
vt 1.00000 0.00000
vt 0.00000 0.00000
vt 1.00000 0.00000
vt 0.00000 0.00000
vt 1.00000 0.00000
vt 0.00000 0.00000
vt 1.00000 0.00000
vt 0.00000 0.00000
vt 1.00000 0.00000
vt 0.00000 0.00000
vt 1.00000 0.00000
vt 0.00000 0.00000
vt 1.00000 0.00000
vt 0.00000 0.00000
vt 1.00000 0.00000
vt 0.00000 0.00000
vt 1.00000 0.00000
vt 0.00000 0.00000
vt 1.00000 0.00000
vt 0.00000 0.00000
vt 1.00000 0.00000
vt 0.00000 0.00000
vt 1.00000 0.00000
vt 0.00000 0.00000
vt 1.00000 0.00000
vt 0.00000 0.00000
vt 1.00000 0.00000
vt 0.00000 0.00000
vt 1.00000 0.00000
vt 0.00000 0.00000
vt 1.00000 0.00000
vt 0.00000 0.00000
vt 1.00000 0.00000
vt 0.00000 0.00000
vt 1.00000 0.00000
vt 0.00000 0.00000
vt 1.00000 0.00000
vt 0.00000 0.00000
vt 1.00000 0.00000
vt 0.00000 0.00000
vt 1.00000 0.00000
vt 0.00000 0.00000
vt 1.00000 0.00000
vt 0.00000 0.00000
vt 1.00000 0.00000
vt 0.00000 0.00000
vt 1.00000 0.00000
vt 0.00000 0.00000
vt 1.00000 0.00000
vt 0.00000 0.00000
vt 1.00000 0.00000
vt 0.00000 0.00000
vt 1.00000 0.00000
vt 0.00000 0.00000
vt 1.00000 0.00000
vt 0.00000 0.00000
vt 1.00000 0.00000
vt 0.00000 0.00000
vt 1.00000 0.00000
vt 0.00000 0.00000
vt 1.00000 0.00000
vt 0.00000 0.00000
vt 1.00000 0.00000
vt 0.00000 0.00000
vt 1.00000 0.00000
vt 0.00000 0.00000
vt 1.00000 0.00000
vt 0.00000 0.00000
vt 1.00000 0.00000
vt 0.00000 0.00000
vt 1.00000 0.00000
vt 0.00000 0.00000
vt 1.00000 0.00000
vt 0.00000 0.00000
vt 1.00000 0.00000
vt 0.00000 0.00000
vt 1.00000 0.00000
vt 0.00000 0.00000
vt 1.00000 0.00000
vt 0.00000 0.00000
vt 1.00000 0.00000
vt 0.00000 0.00000
vt 1.00000 0.00000
vt 0.00000 0.00000
vt 1.00000 0.00000
vt 0.00000 0.00000
vt 1.00000 0.00000
vt 0.00000 0.00000
vt 1.00000 0.00000
vt 0.00000 0.00000
vt 1.00000 0.00000
vt 0.00000 0.00000
vt 1.00000 0.00000
vt 0.00000 0.00000
vt 1.00000 0.00000
vt 0.00000 0.00000
vt 1.00000 0.00000
vt 0.00000 0.00000
vt 1.00000 0.00000
vt 0.00000 0.00000
vt 1.00000 0.00000
vt 0.00000 0.00000
vt 1.00000 0.00000
vt 0.00000 0.00000
vt 1.00000 0.00000
vt 0.00000 0.00000
vt 1.00000 0.00000
vt 0.00000 0.00000
vt 1.00000 0.00000
vt 0.00000 0.00000
vt 1.00000 0.00000
vt 0.00000 0.00000
vt 1.00000 0.00000
vt 0.00000 0.00000
vt 1.00000 0.00000
vt 0.00000 0.00000
vt 1.00000 0.00000
vt 0.00000 0.00000
vt 1.00000 0.00000
vt 0.00000 0.00000
vt 1.00000 0.00000
vt 0.00000 0.00000
vt 1.00000 0.00000
vt 0.00000 0.00000
vt 1.00000 0.00000
vt 0.00000 0.00000
vt 1.00000 0.00000
vt 0.00000 0.00000
vt 1.00000 0.00000
vt 0.00000 0.00000
vt 1.00000 0.00000
vt 0.00000 0.00000
vt 1.00000 0.00000
vt 0.00000 0.00000
vt 1.00000 0.00000
vt 0.00000 0.00000
vt 1.00000 0.00000
vt 0.00000 0.00000
vt 1.00000 0.00000
vt 0.00000 0.00000
vt 1.00000 0.00000
vt 0.00000 0.00000
vt 1.00000 0.00000
vt 0.00000 0.00000
vt 1.00000 0.00000
vt 0.00000 0.00000
vt 1.00000 0.00000
vt 0.00000 0.00000
vt 1.00000 0.00000
vt 0.00000 0.00000
vt 1.00000 0.00000
vt 0.00000 0.00000
vt 1.00000 0.00000
vt 0.00000 0.00000
vt 1.00000 0.00000
vt 0.00000 0.00000
vt 1.00000 0.00000
vt 0.00000 0.00000
vt 1.00000 0.00000
vt 0.00000 0.00000
vt 1.00000 0.00000
vt 0.00000 0.00000
vt 1.00000 0.00000
vt 0.00000 0.00000
vt 1.00000 0.00000
vt 0.00000 0.00000
vt 1.00000 0.00000
vt 0.00000 0.00000
vt 1.00000 0.00000
vt 0.00000 0.00000
vt 1.00000 0.00000
vt 0.00000 0.00000
vt 1.00000 0.00000
vt 0.00000 0.00000
vt 1.00000 0.00000
vt 0.00000 0.00000
vt 1.00000 0.00000
vt 0.00000 0.00000
vt 1.00000 0.00000
vt 0.00000 0.00000
vt 1.00000 0.00000
vt 0.00000 0.00000
vt 1.00000 0.00000
vt 0.00000 0.00000
vt 1.00000 0.00000
vt 0.00000 0.00000
vt 1.00000 0.00000
vt 0.00000 0.00000
vt 1.00000 0.00000
vt 0.00000 0.00000
vt 1.00000 0.00000
vt 0.00000 0.00000
vt 1.00000 0.00000
vt 0.00000 0.00000
vt 1.00000 0.00000
vt 0.00000 0.00000
vt 1.00000 0.00000
vt 0.00000 0.00000
vt 1.00000 0.00000
vt 0.00000 0.00000
vt 1.00000 0.00000
vt 0.00000 0.00000
vt 1.00000 0.00000
vt 0.00000 0.00000
vt 1.00000 0.00000
vt 0.00000 0.00000
vt 1.00000 0.00000
vt 0.00000 0.00000
vt 1.00000 0.00000
vt 0.00000 0.00000
vt 1.00000 0.00000
vt 0.00000 0.00000
vt 1.00000 0.00000
vt 0.00000 0.00000
vt 1.00000 0.00000
vt 0.00000 0.00000
vt 1.00000 0.00000
vt 0.00000 0.00000
vt 1.00000 0.00000
vt 0.00000 0.00000
vt 1.00000 0.00000
vt 0.00000 0.00000
vt 1.00000 0.00000
vt 0.00000 0.00000
vt 1.00000 0.00000
vt 0.00000 0.00000
vt 1.00000 0.00000
vt 0.00000 0.00000
vt 1.00000 0.00000
vt 0.00000 0.00000
vt 1.00000 0.00000
vt 0.00000 0.00000
vt 1.00000 0.00000
vt 0.00000 0.00000
vt 1.00000 0.00000
vt 0.00000 0.00000
vt 1.00000 0.00000
vt 0.00000 0.00000
vt 1.00000 0.00000
vt 0.00000 0.00000
vt 1.00000 0.00000
vt 0.00000 0.00000
vt 1.00000 0.00000
vt 0.00000 0.00000
vt 1.00000 0.00000
vt 0.00000 0.00000
vt 1.00000 0.00000
vt 0.00000 0.00000
vt 1.00000 0.00000
vt 0.00000 0.00000
vt 1.00000 0.00000
vt 0.00000 0.00000
vt 1.00000 0.00000
vt 0.00000 0.00000
vt 1.00000 0.00000
vt 0.00000 0.00000
vt 1.00000 0.00000
vt 0.00000 0.00000
vt 1.00000 0.00000
vt 0.00000 0.00000
vt 1.00000 0.00000
vt 0.00000 0.00000
vt 1.00000 0.00000
vt 0.00000 0.00000
vt 1.00000 0.00000
vt 0.00000 0.00000
vt 1.00000 0.00000
vt 0.00000 0.00000
vt 1.00000 0.00000
vt 0.00000 0.00000
vt 1.00000 0.00000
vt 0.00000 0.00000
vt 1.00000 0.00000
vt 0.00000 0.00000
vt 1.00000 0.00000
vt 0.00000 0.00000
vt 1.00000 0.00000
vt 0.00000 0.00000
vt 1.00000 0.00000
vt 0.00000 0.00000
vt 1.00000 0.00000
vt 0.00000 0.00000
vt 1.00000 0.00000
vt 0.00000 0.00000
vt 1.00000 0.00000
vt 0.00000 0.00000
vt 1.00000 0.00000
vt 0.00000 0.00000
vt 1.00000 0.00000
vt 0.00000 0.00000
vt 1.00000 0.00000
vt 0.00000 0.00000
vt 1.00000 0.00000
vt 0.00000 0.00000
vt 1.00000 0.00000
vt 0.00000 0.00000
vt 1.00000 0.00000
vt 0.00000 0.00000
vt 1.00000 0.00000
vt 0.00000 0.00000
vt 1.00000 0.00000
vt 0.00000 0.00000
vt 1.00000 0.00000
vt 0.00000 0.00000
vt 1.00000 0.00000
vt 0.00000 0.00000
vt 1.00000 0.00000
vt 0.00000 0.00000
vt 1.00000 0.00000
vt 0.00000 0.00000
vt 1.00000 0.00000
vt 0.00000 0.00000
vt 1.00000 0.00000
vt 0.00000 0.00000
vt 1.00000 0.00000
vt 0.00000 0.00000
vt 1.00000 0.00000
vt 0.00000 0.00000
vt 1.00000 0.00000
vt 0.00000 0.00000
vt 1.00000 0.00000
vt 0.00000 0.00000
vt 1.00000 0.00000
vt 0.00000 0.00000
vt 1.00000 0.00000
vt 0.00000 0.00000
vt 1.00000 0.00000
vt 0.00000 0.00000
vt 1.00000 0.00000
vt 0.00000 0.00000
vt 1.00000 0.00000
vt 0.00000 0.00000
vt 1.00000 0.00000
vt 0.00000 0.00000
vt 1.00000 0.00000
vt 0.00000 0.00000
vt 1.00000 0.00000
vt 0.00000 0.00000
vt 1.00000 0.00000
vt 0.00000 0.00000
vt 1.00000 0.00000
vt 0.00000 0.00000
vt 1.00000 0.00000
vt 0.00000 0.00000
vt 1.00000 0.00000
vt 0.00000 0.00000
vt 1.00000 0.00000
vt 0.00000 0.00000
vt 1.00000 0.00000
vt 0.00000 0.00000
vt 1.00000 0.00000
vt 0.00000 0.00000
vt 1.00000 0.00000
vt 0.00000 0.00000
vt 1.00000 0.00000
vt 0.00000 0.00000
vt 1.00000 0.00000
vt 0.00000 0.00000
vt 1.00000 0.00000
vt 0.00000 0.00000
vt 1.00000 0.00000
vt 0.00000 0.00000
vt 1.00000 0.00000
vt 0.00000 0.00000
vt 1.00000 0.00000
vt 0.00000 0.00000
vt 1.00000 0.00000
vt 0.00000 0.00000
vt 1.00000 0.00000
vt 0.00000 0.00000
vt 1.00000 0.00000
vt 0.00000 0.00000
vt 1.00000 0.00000
vt 0.00000 0.00000
vt 1.00000 0.00000
vt 0.00000 0.00000
vt 1.00000 0.00000
vt 0.00000 0.00000
vt 1.00000 0.00000
vt 0.00000 0.00000
vt 1.00000 0.00000
vt 0.00000 0.00000
vt 1.00000 0.00000
vt 0.00000 0.00000
vt 1.00000 0.00000
vt 0.00000 0.00000
vt 1.00000 0.00000
vt 0.00000 0.00000
vt 1.00000 0.00000
vt 0.00000 0.00000
vt 1.00000 0.00000
vt 0.00000 0.00000
vt 1.00000 0.00000
vt 0.00000 0.00000
vt 1.00000 0.00000
vt 0.00000 0.00000
vt 1.00000 0.00000
vt 0.00000 0.00000
vt 1.00000 0.00000
vt 0.00000 0.00000
vt 1.00000 0.00000
vt 0.00000 0.00000
vt 1.00000 0.00000
vt 0.00000 0.00000
vt 1.00000 0.00000
vt 0.00000 0.00000
vt 1.00000 0.00000
vt 0.00000 0.00000
vt 1.00000 0.00000
vt 0.00000 0.00000
vt 1.00000 0.00000
vt 0.00000 0.00000
vt 1.00000 0.00000
vt 0.00000 0.00000
vt 1.00000 0.00000
vt 0.00000 0.00000
vt 1.00000 0.00000
vt 0.00000 0.00000
vt 1.00000 0.00000
vt 0.00000 0.00000
vt 1.00000 0.00000
vt 0.00000 0.00000
vt 1.00000 0.00000
vt 0.00000 0.00000
vt 1.00000 0.00000
vt 0.00000 0.00000
vt 1.00000 0.00000
vt 0.00000 0.00000
vt 1.00000 0.00000
vt 0.00000 0.00000
vt 1.00000 0.00000
f 1/1 2/2 4/4
f 1/1 4/4 3/3
f 3/3 4/4 6/6
f 3/3 6/6 5/5
f 5/5 6/6 8/8
f 5/5 8/8 7/7
f 7/7 8/8 10/10
f 7/7 10/10 9/9
f 9/9 10/10 12/12
f 9/9 12/12 11/11
f 11/11 12/12 14/14
f 11/11 14/14 13/13
f 13/13 14/14 16/16
f 13/13 16/16 15/15
f 15/15 16/16 18/18
f 15/15 18/18 17/17
f 17/17 18/18 20/20
f 17/17 20/20 19/19
f 19/19 20/20 22/22
f 19/19 22/22 21/21
f 21/21 22/22 24/24
f 21/21 24/24 23/23
f 23/23 24/24 26/26
f 23/23 26/26 25/25
f 25/25 26/26 28/28
f 25/25 28/28 27/27
f 27/27 28/28 30/30
f 27/27 30/30 29/29
f 29/29 30/30 32/32
f 29/29 32/32 31/31
f 31/31 32/32 34/34
f 31/31 34/34 33/33
f 33/33 34/34 36/36
f 33/33 36/36 35/35
f 35/35 36/36 38/38
f 35/35 38/38 37/37
f 37/37 38/38 40/40
f 37/37 40/40 39/39
f 39/39 40/40 42/42
f 39/39 42/42 41/41
f 41/41 42/42 44/44
f 41/41 44/44 43/43
f 43/43 44/44 46/46
f 43/43 46/46 45/45
f 45/45 46/46 48/48
f 45/45 48/48 47/47
f 47/47 48/48 50/50
f 47/47 50/50 49/49
f 49/49 50/50 52/52
f 49/49 52/52 51/51
f 51/51 52/52 54/54
f 51/51 54/54 53/53
f 53/53 54/54 56/56
f 53/53 56/56 55/55
f 55/55 56/56 58/58
f 55/55 58/58 57/57
f 57/57 58/58 60/60
f 57/57 60/60 59/59
f 59/59 60/60 62/62
f 59/59 62/62 61/61
f 61/61 62/62 64/64
f 61/61 64/64 63/63
f 63/63 64/64 66/66
f 63/63 66/66 65/65
f 65/65 66/66 68/68
f 65/65 68/68 67/67
f 67/67 68/68 70/70
f 67/67 70/70 69/69
f 69/69 70/70 72/72
f 69/69 72/72 71/71
f 71/71 72/72 74/74
f 71/71 74/74 73/73
f 73/73 74/74 76/76
f 73/73 76/76 75/75
f 75/75 76/76 78/78
f 75/75 78/78 77/77
f 77/77 78/78 80/80
f 77/77 80/80 79/79
f 79/79 80/80 82/82
f 79/79 82/82 81/81
f 81/81 82/82 84/84
f 81/81 84/84 83/83
f 83/83 84/84 86/86
f 83/83 86/86 85/85
f 85/85 86/86 88/88
f 85/85 88/88 87/87
f 87/87 88/88 90/90
f 87/87 90/90 89/89
f 89/89 90/90 92/92
f 89/89 92/92 91/91
f 91/91 92/92 94/94
f 91/91 94/94 93/93
f 93/93 94/94 96/96
f 93/93 96/96 95/95
f 95/95 96/96 98/98
f 95/95 98/98 97/97
f 97/97 98/98 100/100
f 97/97 100/100 99/99
f 99/99 100/100 102/102
f 99/99 102/102 101/101
f 101/101 102/102 104/104
f 101/101 104/104 103/103
f 103/103 104/104 106/106
f 103/103 106/106 105/105
f 105/105 106/106 108/108
f 105/105 108/108 107/107
f 107/107 108/108 110/110
f 107/107 110/110 109/109
f 109/109 110/110 112/112
f 109/109 112/112 111/111
f 111/111 112/112 114/114
f 111/111 114/114 113/113
f 113/113 114/114 116/116
f 113/113 116/116 115/115
f 115/115 116/116 118/118
f 115/115 118/118 117/117
f 117/117 118/118 120/120
f 117/117 120/120 119/119
f 119/119 120/120 122/122
f 119/119 122/122 121/121
f 121/121 122/122 124/124
f 121/121 124/124 123/123
f 123/123 124/124 126/126
f 123/123 126/126 125/125
f 125/125 126/126 128/128
f 125/125 128/128 127/127
f 127/127 128/128 130/130
f 127/127 130/130 129/129
f 129/129 130/130 132/132
f 129/129 132/132 131/131
f 131/131 132/132 134/134
f 131/131 134/134 133/133
f 133/133 134/134 136/136
f 133/133 136/136 135/135
f 135/135 136/136 138/138
f 135/135 138/138 137/137
f 137/137 138/138 140/140
f 137/137 140/140 139/139
f 139/139 140/140 142/142
f 139/139 142/142 141/141
f 141/141 142/142 144/144
f 141/141 144/144 143/143
f 143/143 144/144 146/146
f 143/143 146/146 145/145
f 145/145 146/146 148/148
f 145/145 148/148 147/147
f 147/147 148/148 150/150
f 147/147 150/150 149/149
f 149/149 150/150 152/152
f 149/149 152/152 151/151
f 151/151 152/152 154/154
f 151/151 154/154 153/153
f 153/153 154/154 156/156
f 153/153 156/156 155/155
f 155/155 156/156 158/158
f 155/155 158/158 157/157
f 157/157 158/158 160/160
f 157/157 160/160 159/159
f 159/159 160/160 162/162
f 159/159 162/162 161/161
f 161/161 162/162 164/164
f 161/161 164/164 163/163
f 163/163 164/164 166/166
f 163/163 166/166 165/165
f 165/165 166/166 168/168
f 165/165 168/168 167/167
f 167/167 168/168 170/170
f 167/167 170/170 169/169
f 169/169 170/170 172/172
f 169/169 172/172 171/171
f 171/171 172/172 174/174
f 171/171 174/174 173/173
f 173/173 174/174 176/176
f 173/173 176/176 175/175
f 175/175 176/176 178/178
f 175/175 178/178 177/177
f 177/177 178/178 180/180
f 177/177 180/180 179/179
f 179/179 180/180 182/182
f 179/179 182/182 181/181
f 181/181 182/182 184/184
f 181/181 184/184 183/183
f 183/183 184/184 186/186
f 183/183 186/186 185/185
f 185/185 186/186 188/188
f 185/185 188/188 187/187
f 187/187 188/188 190/190
f 187/187 190/190 189/189
f 189/189 190/190 192/192
f 189/189 192/192 191/191
f 191/191 192/192 194/194
f 191/191 194/194 193/193
f 193/193 194/194 196/196
f 193/193 196/196 195/195
f 195/195 196/196 198/198
f 195/195 198/198 197/197
f 197/197 198/198 200/200
f 197/197 200/200 199/199
f 199/199 200/200 202/202
f 199/199 202/202 201/201
f 201/201 202/202 204/204
f 201/201 204/204 203/203
f 203/203 204/204 206/206
f 203/203 206/206 205/205
f 205/205 206/206 208/208
f 205/205 208/208 207/207
f 207/207 208/208 210/210
f 207/207 210/210 209/209
f 209/209 210/210 212/212
f 209/209 212/212 211/211
f 211/211 212/212 214/214
f 211/211 214/214 213/213
f 213/213 214/214 216/216
f 213/213 216/216 215/215
f 215/215 216/216 218/218
f 215/215 218/218 217/217
f 217/217 218/218 220/220
f 217/217 220/220 219/219
f 219/219 220/220 222/222
f 219/219 222/222 221/221
f 221/221 222/222 224/224
f 221/221 224/224 223/223
f 223/223 224/224 226/226
f 223/223 226/226 225/225
f 225/225 226/226 228/228
f 225/225 228/228 227/227
f 227/227 228/228 230/230
f 227/227 230/230 229/229
f 229/229 230/230 232/232
f 229/229 232/232 231/231
f 231/231 232/232 234/234
f 231/231 234/234 233/233
f 233/233 234/234 236/236
f 233/233 236/236 235/235
f 235/235 236/236 238/238
f 235/235 238/238 237/237
f 237/237 238/238 240/240
f 237/237 240/240 239/239
f 239/239 240/240 242/242
f 239/239 242/242 241/241
f 241/241 242/242 244/244
f 241/241 244/244 243/243
f 243/243 244/244 246/246
f 243/243 246/246 245/245
f 245/245 246/246 248/248
f 245/245 248/248 247/247
f 247/247 248/248 250/250
f 247/247 250/250 249/249
f 249/249 250/250 252/252
f 249/249 252/252 251/251
f 251/251 252/252 254/254
f 251/251 254/254 253/253
f 253/253 254/254 256/256
f 253/253 256/256 255/255
f 255/255 256/256 258/258
f 255/255 258/258 257/257
f 257/257 258/258 260/260
f 257/257 260/260 259/259
f 259/259 260/260 262/262
f 259/259 262/262 261/261
f 261/261 262/262 264/264
f 261/261 264/264 263/263
f 263/263 264/264 266/266
f 263/263 266/266 265/265
f 265/265 266/266 268/268
f 265/265 268/268 267/267
f 267/267 268/268 270/270
f 267/267 270/270 269/269
f 269/269 270/270 272/272
f 269/269 272/272 271/271
f 271/271 272/272 274/274
f 271/271 274/274 273/273
f 273/273 274/274 276/276
f 273/273 276/276 275/275
f 275/275 276/276 278/278
f 275/275 278/278 277/277
f 277/277 278/278 280/280
f 277/277 280/280 279/279
f 279/279 280/280 282/282
f 279/279 282/282 281/281
f 281/281 282/282 284/284
f 281/281 284/284 283/283
f 283/283 284/284 286/286
f 283/283 286/286 285/285
f 285/285 286/286 288/288
f 285/285 288/288 287/287
f 287/287 288/288 290/290
f 287/287 290/290 289/289
f 289/289 290/290 292/292
f 289/289 292/292 291/291
f 291/291 292/292 294/294
f 291/291 294/294 293/293
f 293/293 294/294 296/296
f 293/293 296/296 295/295
f 295/295 296/296 298/298
f 295/295 298/298 297/297
f 297/297 298/298 300/300
f 297/297 300/300 299/299
f 299/299 300/300 302/302
f 299/299 302/302 301/301
f 301/301 302/302 304/304
f 301/301 304/304 303/303
f 303/303 304/304 306/306
f 303/303 306/306 305/305
f 305/305 306/306 308/308
f 305/305 308/308 307/307
f 307/307 308/308 310/310
f 307/307 310/310 309/309
f 309/309 310/310 312/312
f 309/309 312/312 311/311
f 311/311 312/312 314/314
f 311/311 314/314 313/313
f 313/313 314/314 316/316
f 313/313 316/316 315/315
f 315/315 316/316 318/318
f 315/315 318/318 317/317
f 317/317 318/318 320/320
f 317/317 320/320 319/319
f 319/319 320/320 322/322
f 319/319 322/322 321/321
f 321/321 322/322 324/324
f 321/321 324/324 323/323
f 323/323 324/324 326/326
f 323/323 326/326 325/325
f 325/325 326/326 328/328
f 325/325 328/328 327/327
f 327/327 328/328 330/330
f 327/327 330/330 329/329
f 329/329 330/330 332/332
f 329/329 332/332 331/331
f 331/331 332/332 334/334
f 331/331 334/334 333/333
f 333/333 334/334 336/336
f 333/333 336/336 335/335
f 335/335 336/336 338/338
f 335/335 338/338 337/337
f 337/337 338/338 340/340
f 337/337 340/340 339/339
f 339/339 340/340 342/342
f 339/339 342/342 341/341
f 341/341 342/342 344/344
f 341/341 344/344 343/343
f 343/343 344/344 346/346
f 343/343 346/346 345/345
f 345/345 346/346 348/348
f 345/345 348/348 347/347
f 347/347 348/348 350/350
f 347/347 350/350 349/349
f 349/349 350/350 352/352
f 349/349 352/352 351/351
f 351/351 352/352 354/354
f 351/351 354/354 353/353
f 353/353 354/354 356/356
f 353/353 356/356 355/355
f 355/355 356/356 358/358
f 355/355 358/358 357/357
f 357/357 358/358 360/360
f 357/357 360/360 359/359
f 359/359 360/360 362/362
f 359/359 362/362 361/361
f 363/363 364/364 366/366
f 363/363 366/366 365/365
f 365/365 366/366 368/368
f 365/365 368/368 367/367
f 367/367 368/368 370/370
f 367/367 370/370 369/369
f 369/369 370/370 372/372
f 369/369 372/372 371/371
f 371/371 372/372 374/374
f 371/371 374/374 373/373
f 373/373 374/374 376/376
f 373/373 376/376 375/375
f 375/375 376/376 378/378
f 375/375 378/378 377/377
f 377/377 378/378 380/380
f 377/377 380/380 379/379
f 379/379 380/380 382/382
f 379/379 382/382 381/381
f 381/381 382/382 384/384
f 381/381 384/384 383/383
f 383/383 384/384 386/386
f 383/383 386/386 385/385
f 385/385 386/386 388/388
f 385/385 388/388 387/387
f 387/387 388/388 390/390
f 387/387 390/390 389/389
f 389/389 390/390 392/392
f 389/389 392/392 391/391
f 391/391 392/392 394/394
f 391/391 394/394 393/393
f 393/393 394/394 396/396
f 393/393 396/396 395/395
f 395/395 396/396 398/398
f 395/395 398/398 397/397
f 397/397 398/398 400/400
f 397/397 400/400 399/399
f 399/399 400/400 402/402
f 399/399 402/402 401/401
f 401/401 402/402 404/404
f 401/401 404/404 403/403
f 403/403 404/404 406/406
f 403/403 406/406 405/405
f 405/405 406/406 408/408
f 405/405 408/408 407/407
f 407/407 408/408 410/410
f 407/407 410/410 409/409
f 409/409 410/410 412/412
f 409/409 412/412 411/411
f 411/411 412/412 414/414
f 411/411 414/414 413/413
f 413/413 414/414 416/416
f 413/413 416/416 415/415
f 415/415 416/416 418/418
f 415/415 418/418 417/417
f 417/417 418/418 420/420
f 417/417 420/420 419/419
f 419/419 420/420 422/422
f 419/419 422/422 421/421
f 421/421 422/422 424/424
f 421/421 424/424 423/423
f 423/423 424/424 426/426
f 423/423 426/426 425/425
f 425/425 426/426 428/428
f 425/425 428/428 427/427
f 427/427 428/428 430/430
f 427/427 430/430 429/429
f 429/429 430/430 432/432
f 429/429 432/432 431/431
f 431/431 432/432 434/434
f 431/431 434/434 433/433
f 433/433 434/434 436/436
f 433/433 436/436 435/435
f 435/435 436/436 438/438
f 435/435 438/438 437/437
f 437/437 438/438 440/440
f 437/437 440/440 439/439
f 439/439 440/440 442/442
f 439/439 442/442 441/441
f 441/441 442/442 444/444
f 441/441 444/444 443/443
f 443/443 444/444 446/446
f 443/443 446/446 445/445
f 445/445 446/446 448/448
f 445/445 448/448 447/447
f 447/447 448/448 450/450
f 447/447 450/450 449/449
f 449/449 450/450 452/452
f 449/449 452/452 451/451
f 451/451 452/452 454/454
f 451/451 454/454 453/453
f 453/453 454/454 456/456
f 453/453 456/456 455/455
f 455/455 456/456 458/458
f 455/455 458/458 457/457
f 457/457 458/458 460/460
f 457/457 460/460 459/459
f 459/459 460/460 462/462
f 459/459 462/462 461/461
f 461/461 462/462 464/464
f 461/461 464/464 463/463
f 463/463 464/464 466/466
f 463/463 466/466 465/465
f 465/465 466/466 468/468
f 465/465 468/468 467/467
f 467/467 468/468 470/470
f 467/467 470/470 469/469
f 469/469 470/470 472/472
f 469/469 472/472 471/471
f 471/471 472/472 474/474
f 471/471 474/474 473/473
f 473/473 474/474 476/476
f 473/473 476/476 475/475
f 475/475 476/476 478/478
f 475/475 478/478 477/477
f 477/477 478/478 480/480
f 477/477 480/480 479/479
f 479/479 480/480 482/482
f 479/479 482/482 481/481
f 481/481 482/482 484/484
f 481/481 484/484 483/483
f 483/483 484/484 486/486
f 483/483 486/486 485/485
f 485/485 486/486 488/488
f 485/485 488/488 487/487
f 487/487 488/488 490/490
f 487/487 490/490 489/489
f 489/489 490/490 492/492
f 489/489 492/492 491/491
f 491/491 492/492 494/494
f 491/491 494/494 493/493
f 493/493 494/494 496/496
f 493/493 496/496 495/495
f 495/495 496/496 498/498
f 495/495 498/498 497/497
f 497/497 498/498 500/500
f 497/497 500/500 499/499
f 499/499 500/500 502/502
f 499/499 502/502 501/501
f 501/501 502/502 504/504
f 501/501 504/504 503/503
f 503/503 504/504 506/506
f 503/503 506/506 505/505
f 505/505 506/506 508/508
f 505/505 508/508 507/507
f 507/507 508/508 510/510
f 507/507 510/510 509/509
f 509/509 510/510 512/512
f 509/509 512/512 511/511
f 511/511 512/512 514/514
f 511/511 514/514 513/513
f 513/513 514/514 516/516
f 513/513 516/516 515/515
f 515/515 516/516 518/518
f 515/515 518/518 517/517
f 517/517 518/518 520/520
f 517/517 520/520 519/519
f 519/519 520/520 522/522
f 519/519 522/522 521/521
f 521/521 522/522 524/524
f 521/521 524/524 523/523
f 523/523 524/524 526/526
f 523/523 526/526 525/525
f 525/525 526/526 528/528
f 525/525 528/528 527/527
f 527/527 528/528 530/530
f 527/527 530/530 529/529
f 529/529 530/530 532/532
f 529/529 532/532 531/531
f 531/531 532/532 534/534
f 531/531 534/534 533/533
f 533/533 534/534 536/536
f 533/533 536/536 535/535
f 535/535 536/536 538/538
f 535/535 538/538 537/537
f 537/537 538/538 540/540
f 537/537 540/540 539/539
f 539/539 540/540 542/542
f 539/539 542/542 541/541
f 541/541 542/542 544/544
f 541/541 544/544 543/543
f 543/543 544/544 546/546
f 543/543 546/546 545/545
f 545/545 546/546 548/548
f 545/545 548/548 547/547
f 547/547 548/548 550/550
f 547/547 550/550 549/549
f 549/549 550/550 552/552
f 549/549 552/552 551/551
f 551/551 552/552 554/554
f 551/551 554/554 553/553
f 553/553 554/554 556/556
f 553/553 556/556 555/555
f 555/555 556/556 558/558
f 555/555 558/558 557/557
f 557/557 558/558 560/560
f 557/557 560/560 559/559
f 559/559 560/560 562/562
f 559/559 562/562 561/561
f 561/561 562/562 564/564
f 561/561 564/564 563/563
f 563/563 564/564 566/566
f 563/563 566/566 565/565
f 565/565 566/566 568/568
f 565/565 568/568 567/567
f 567/567 568/568 570/570
f 567/567 570/570 569/569
f 569/569 570/570 572/572
f 569/569 572/572 571/571
f 571/571 572/572 574/574
f 571/571 574/574 573/573
f 573/573 574/574 576/576
f 573/573 576/576 575/575
f 575/575 576/576 578/578
f 575/575 578/578 577/577
f 577/577 578/578 580/580
f 577/577 580/580 579/579
f 579/579 580/580 582/582
f 579/579 582/582 581/581
f 581/581 582/582 584/584
f 581/581 584/584 583/583
f 583/583 584/584 586/586
f 583/583 586/586 585/585
f 585/585 586/586 588/588
f 585/585 588/588 587/587
f 587/587 588/588 590/590
f 587/587 590/590 589/589
f 589/589 590/590 592/592
f 589/589 592/592 591/591
f 591/591 592/592 594/594
f 591/591 594/594 593/593
f 593/593 594/594 596/596
f 593/593 596/596 595/595
f 595/595 596/596 598/598
f 595/595 598/598 597/597
f 597/597 598/598 600/600
f 597/597 600/600 599/599
f 599/599 600/600 602/602
f 599/599 602/602 601/601
f 601/601 602/602 604/604
f 601/601 604/604 603/603
f 603/603 604/604 606/606
f 603/603 606/606 605/605
f 605/605 606/606 608/608
f 605/605 608/608 607/607
f 607/607 608/608 610/610
f 607/607 610/610 609/609
f 609/609 610/610 612/612
f 609/609 612/612 611/611
f 611/611 612/612 614/614
f 611/611 614/614 613/613
f 613/613 614/614 616/616
f 613/613 616/616 615/615
f 615/615 616/616 618/618
f 615/615 618/618 617/617
f 617/617 618/618 620/620
f 617/617 620/620 619/619
f 619/619 620/620 622/622
f 619/619 622/622 621/621
f 621/621 622/622 624/624
f 621/621 624/624 623/623
f 623/623 624/624 626/626
f 623/623 626/626 625/625
f 625/625 626/626 628/628
f 625/625 628/628 627/627
f 627/627 628/628 630/630
f 627/627 630/630 629/629
f 629/629 630/630 632/632
f 629/629 632/632 631/631
f 631/631 632/632 634/634
f 631/631 634/634 633/633
f 633/633 634/634 636/636
f 633/633 636/636 635/635
f 635/635 636/636 638/638
f 635/635 638/638 637/637
f 637/637 638/638 640/640
f 637/637 640/640 639/639
f 639/639 640/640 642/642
f 639/639 642/642 641/641
f 641/641 642/642 644/644
f 641/641 644/644 643/643
f 643/643 644/644 646/646
f 643/643 646/646 645/645
f 645/645 646/646 648/648
f 645/645 648/648 647/647
f 647/647 648/648 650/650
f 647/647 650/650 649/649
f 649/649 650/650 652/652
f 649/649 652/652 651/651
f 651/651 652/652 654/654
f 651/651 654/654 653/653
f 653/653 654/654 656/656
f 653/653 656/656 655/655
f 655/655 656/656 658/658
f 655/655 658/658 657/657
f 657/657 658/658 660/660
f 657/657 660/660 659/659
f 659/659 660/660 662/662
f 659/659 662/662 661/661
f 661/661 662/662 664/664
f 661/661 664/664 663/663
f 663/663 664/664 666/666
f 663/663 666/666 665/665
f 665/665 666/666 668/668
f 665/665 668/668 667/667
f 667/667 668/668 670/670
f 667/667 670/670 669/669
f 669/669 670/670 672/672
f 669/669 672/672 671/671
f 671/671 672/672 674/674
f 671/671 674/674 673/673
f 673/673 674/674 676/676
f 673/673 676/676 675/675
f 675/675 676/676 678/678
f 675/675 678/678 677/677
f 677/677 678/678 680/680
f 677/677 680/680 679/679
f 679/679 680/680 682/682
f 679/679 682/682 681/681
f 681/681 682/682 684/684
f 681/681 684/684 683/683
f 683/683 684/684 686/686
f 683/683 686/686 685/685
f 685/685 686/686 688/688
f 685/685 688/688 687/687
f 687/687 688/688 690/690
f 687/687 690/690 689/689
f 689/689 690/690 692/692
f 689/689 692/692 691/691
f 691/691 692/692 694/694
f 691/691 694/694 693/693
f 693/693 694/694 696/696
f 693/693 696/696 695/695
f 695/695 696/696 698/698
f 695/695 698/698 697/697
f 697/697 698/698 700/700
f 697/697 700/700 699/699
f 699/699 700/700 702/702
f 699/699 702/702 701/701
f 701/701 702/702 704/704
f 701/701 704/704 703/703
f 703/703 704/704 706/706
f 703/703 706/706 705/705
f 705/705 706/706 708/708
f 705/705 708/708 707/707
f 707/707 708/708 710/710
f 707/707 710/710 709/709
f 709/709 710/710 712/712
f 709/709 712/712 711/711
f 711/711 712/712 714/714
f 711/711 714/714 713/713
f 713/713 714/714 716/716
f 713/713 716/716 715/715
f 715/715 716/716 718/718
f 715/715 718/718 717/717
f 717/717 718/718 720/720
f 717/717 720/720 719/719
f 719/719 720/720 722/722
f 719/719 722/722 721/721
f 721/721 722/722 724/724
f 721/721 724/724 723/723
f 723/723 724/724 726/726
f 723/723 726/726 725/725
f 725/725 726/726 728/728
f 725/725 728/728 727/727
f 727/727 728/728 730/730
f 727/727 730/730 729/729
f 729/729 730/730 732/732
f 729/729 732/732 731/731
f 731/731 732/732 734/734
f 731/731 734/734 733/733
f 733/733 734/734 736/736
f 733/733 736/736 735/735
f 735/735 736/736 738/738
f 735/735 738/738 737/737
f 737/737 738/738 740/740
f 737/737 740/740 739/739
f 739/739 740/740 742/742
f 739/739 742/742 741/741
f 741/741 742/742 744/744
f 741/741 744/744 743/743
f 743/743 744/744 746/746
f 743/743 746/746 745/745
f 745/745 746/746 748/748
f 745/745 748/748 747/747
f 747/747 748/748 750/750
f 747/747 750/750 749/749
f 749/749 750/750 752/752
f 749/749 752/752 751/751
f 751/751 752/752 754/754
f 751/751 754/754 753/753
f 753/753 754/754 756/756
f 753/753 756/756 755/755
f 755/755 756/756 758/758
f 755/755 758/758 757/757
f 757/757 758/758 760/760
f 757/757 760/760 759/759
f 759/759 760/760 762/762
f 759/759 762/762 761/761
f 761/761 762/762 764/764
f 761/761 764/764 763/763
